<svg width="30" height="30" viewBox="0 0 30 30" fill="none" xmlns="http://www.w3.org/2000/svg">
<path d="M15 29C22.732 29 29 22.732 29 15C29 7.26801 22.732 1 15 1C7.26801 1 1 7.26801 1 15C1 22.732 7.26801 29 15 29Z" stroke="white" stroke-width="1.5" stroke-miterlimit="10" stroke-linecap="round" stroke-linejoin="round"/>
<path d="M15 18.5929C10.6637 18.5929 6.9469 21.0708 5.0885 24.7876C7.56637 27.3894 11.1593 28.8761 15 28.8761C18.8407 28.8761 22.4336 27.2655 24.9115 24.7876C23.0531 21.1947 19.3363 18.5929 15 18.5929Z" stroke="white" stroke-width="1.5" stroke-miterlimit="10" stroke-linecap="round" stroke-linejoin="round"/>
<path d="M15 15.3717C17.4633 15.3717 19.4602 13.3748 19.4602 10.9115C19.4602 8.44822 17.4633 6.45133 15 6.45133C12.5367 6.45133 10.5398 8.44822 10.5398 10.9115C10.5398 13.3748 12.5367 15.3717 15 15.3717Z" stroke="white" stroke-width="1.5" stroke-miterlimit="10" stroke-linecap="round" stroke-linejoin="round"/>
</svg>
