<svg width="23" height="24" viewBox="0 0 23 24" fill="none" xmlns="http://www.w3.org/2000/svg">
<path fill-rule="evenodd" clip-rule="evenodd" d="M6.41988 17.4537C6.48782 17.8013 6.26465 18.1388 5.92144 18.2076C4.54833 18.4828 3.45152 18.8495 2.71523 19.2559C1.92735 19.6908 1.76702 20.0443 1.76702 20.209C1.76702 20.3328 1.85235 20.5795 2.31466 20.9116C2.76052 21.2319 3.44678 21.5465 4.35182 21.8215C6.15384 22.369 8.68126 22.7169 11.5 22.7169C14.3187 22.7169 16.8462 22.369 18.6482 21.8215C19.5532 21.5465 20.2395 21.2319 20.6853 20.9116C21.1477 20.5795 21.233 20.3328 21.233 20.209C21.233 20.0443 21.0727 19.6908 20.2848 19.2559C19.5485 18.8495 18.4517 18.4828 17.0786 18.2076C16.7353 18.1388 16.5122 17.8013 16.5801 17.4537C16.6481 17.1061 16.9814 16.8801 17.3246 16.9489C18.7619 17.237 19.9976 17.636 20.8911 18.1293C21.7331 18.594 22.5 19.2742 22.5 20.209C22.5 20.9549 22.0052 21.5367 21.4183 21.9582C20.8151 22.3915 19.9832 22.7555 19.0123 23.0505C17.0623 23.6429 14.4065 24 11.5 24C8.59348 24 5.93766 23.6429 3.98775 23.0505C3.01682 22.7555 2.18494 22.3915 1.58165 21.9582C0.994822 21.5367 0.5 20.9549 0.5 20.209C0.5 19.2742 1.26689 18.594 2.10885 18.1293C3.00241 17.636 4.23806 17.237 5.67542 16.9489C6.01864 16.8801 6.35195 17.1061 6.41988 17.4537Z" fill="black"/>
<path fill-rule="evenodd" clip-rule="evenodd" d="M4.24346 7.17095C4.24346 3.17834 7.52805 0 11.5 0C15.472 0 18.7565 3.17834 18.7565 7.17095C18.7565 9.42181 17.5789 12.2066 16.2889 14.6137C14.9795 17.0568 13.4716 19.2579 12.6629 20.3864C12.5295 20.5749 12.355 20.7284 12.1536 20.8343C11.9511 20.9408 11.7272 20.9963 11.5 20.9963C11.2728 20.9963 11.0489 20.9408 10.8464 20.8343C10.645 20.7284 10.4705 20.5749 10.337 20.3864C9.52839 19.2574 8.02046 17.0555 6.7111 14.612C5.42113 12.2048 4.24346 9.42021 4.24346 7.17095ZM11.5 1.49981C8.26076 1.49981 5.69477 4.07604 5.69477 7.17095C5.69477 8.99929 6.69405 11.4844 7.98073 13.8855C9.24454 16.2439 10.7084 18.3836 11.5 19.4891C12.2916 18.3841 13.7555 16.2452 15.0193 13.887C16.3059 11.4863 17.3052 9.00097 17.3052 7.17095C17.3052 4.07604 14.7392 1.49981 11.5 1.49981Z" fill="black"/>
<path fill-rule="evenodd" clip-rule="evenodd" d="M11.5 5.99923C10.6985 5.99923 10.0487 6.67071 10.0487 7.49903C10.0487 8.32735 10.6985 8.99884 11.5 8.99884C12.3015 8.99884 12.9513 8.32735 12.9513 7.49903C12.9513 6.67071 12.3015 5.99923 11.5 5.99923ZM8.59738 7.49903C8.59738 5.84239 9.89693 4.49942 11.5 4.49942C13.1031 4.49942 14.4026 5.84239 14.4026 7.49903C14.4026 9.15567 13.1031 10.4986 11.5 10.4986C9.89693 10.4986 8.59738 9.15567 8.59738 7.49903Z" fill="black"/>
</svg>
