<svg width="27" height="31" viewBox="0 0 27 31" fill="none" xmlns="http://www.w3.org/2000/svg">
<path d="M17.6637 25.3026C17.6627 24.5554 17.8613 23.8218 18.238 23.1783L8.76519 17.617C8.39876 18.2514 7.87393 18.7775 7.24253 19.1433C6.61113 19.5091 5.89558 19.7017 5.16734 19.7015C4.06225 19.701 3.00198 19.2584 2.22056 18.4707C1.43914 17.6831 1.00044 16.6147 1 15.5008C1.00044 14.387 1.4399 13.3191 2.22136 12.5317C3.00283 11.7443 4.0624 11.3018 5.16734 11.3018C5.89583 11.3015 6.61165 11.4938 7.24334 11.8595C7.87502 12.2253 8.4001 12.7517 8.76681 13.3862L18.2316 7.81686C17.8591 7.17491 17.6628 6.44435 17.6637 5.70065C17.6639 5.1488 17.7723 4.60229 17.982 4.09253C18.1917 3.58278 18.4986 3.11956 18.8859 2.7295C19.2731 2.33944 19.733 2.03016 20.2389 1.81918C20.7448 1.6082 21.2868 1.49978 21.8343 1.5C22.3814 1.5 22.9233 1.60847 23.4288 1.81959C23.9343 2.03071 24.3934 2.34023 24.7802 2.73031C25.1671 3.12039 25.4741 3.58372 25.6833 4.09335C25.8926 4.60297 26.0002 5.1491 26 5.70065C26.0002 6.25212 25.8926 6.79802 25.6833 7.30755C25.4741 7.81708 25.1671 8.28023 24.7802 8.67018C24.3934 9.06012 23.9343 9.36915 23.4288 9.58009C22.9233 9.79102 22.3814 9.89949 21.8343 9.89927C21.1055 9.89968 20.3897 9.70776 19.7575 9.34233C19.1253 8.9769 18.5993 8.45108 18.2316 7.81686L8.76681 13.3862C9.13816 14.028 9.3339 14.7579 9.33306 15.5008C9.33428 16.244 9.13794 16.9742 8.76519 17.6154L18.238 23.1766C18.605 22.5436 19.1305 22.0186 19.7615 21.654C20.3926 21.2894 21.1069 21.0979 21.8343 21.0987C22.3816 21.0987 22.924 21.2075 23.4296 21.4187C23.9353 21.6299 24.3942 21.9396 24.7811 22.3298C25.1679 22.7201 25.475 23.1834 25.6842 23.6933C25.8933 24.2031 26.0004 24.7493 26 25.301C26 26.4146 25.5615 27.4826 24.7802 28.2701C23.999 29.0575 22.9391 29.5 21.8343 29.5C20.7292 29.5004 19.6695 29.0584 18.8875 28.2713C18.1055 27.4843 17.665 26.4165 17.6637 25.3026V25.3026Z" stroke="black" stroke-width="1.5" stroke-linecap="round"/>
</svg>
