<svg width="36" height="36" viewBox="0 0 36 36" fill="none" xmlns="http://www.w3.org/2000/svg">
<rect x="0.5" y="0.5" width="35" height="35" rx="17.5" stroke="white"/>
<path fill-rule="evenodd" clip-rule="evenodd" d="M18.0335 25.8625H18.0302C16.6969 25.8621 15.3868 25.5291 14.2232 24.8975L10 26L11.1302 21.8916C10.433 20.6892 10.0662 19.3253 10.0668 17.9279C10.0685 13.5565 13.6423 10 18.0334 10C20.1646 10.0009 22.1648 10.8266 23.6689 12.3252C25.173 13.8238 26.0008 15.8157 26 17.9342C25.9982 22.3046 22.4259 25.8607 18.0335 25.8625ZM14.6618 23.6049L14.42 23.4621L11.9139 24.1163L12.5828 21.6846L12.4254 21.4353C11.7626 20.3861 11.4125 19.1735 11.413 17.9283C11.4145 14.295 14.3849 11.3391 18.0373 11.3391C19.8059 11.3397 21.4684 12.026 22.7185 13.2716C23.9687 14.5172 24.6567 16.1728 24.656 17.9336C24.6546 21.5672 21.6842 24.5235 18.0347 24.5235H18.032C16.8438 24.523 15.6784 24.2053 14.6618 23.6049Z" fill="white"/>
<path d="M22.0495 19.8195C22.0095 19.753 21.9157 19.7079 21.7769 19.6412C21.7432 19.625 21.7069 19.6075 21.668 19.5881C21.469 19.489 20.4903 19.0098 20.3078 18.9436C20.1254 18.8775 19.9927 18.8445 19.86 19.0428C19.7273 19.2411 19.3458 19.6873 19.2297 19.8195C19.1136 19.9517 18.9974 19.9683 18.7985 19.8691C18.7659 19.8529 18.7216 19.8338 18.6669 19.8102C18.3866 19.6892 17.8338 19.4505 17.1977 18.8859C16.6059 18.3605 16.2064 17.7118 16.0903 17.5135C15.9742 17.3152 16.0779 17.208 16.1776 17.1092C16.2372 17.0501 16.3057 16.9671 16.3742 16.8841C16.4085 16.8424 16.4429 16.8008 16.4762 16.7621C16.5608 16.6638 16.5974 16.5894 16.6472 16.4881C16.656 16.4702 16.6653 16.4515 16.6752 16.4317C16.7416 16.2994 16.7084 16.1838 16.6586 16.0846C16.6253 16.0182 16.4361 15.5597 16.2648 15.1447C16.1801 14.9395 16.0998 14.7449 16.0449 14.6136C15.9022 14.2726 15.7576 14.2734 15.6416 14.2741C15.6262 14.2742 15.6113 14.2743 15.597 14.2736C15.481 14.2678 15.3482 14.2666 15.2155 14.2666C15.0828 14.2666 14.8672 14.3161 14.6847 14.5145C14.673 14.5272 14.6599 14.5411 14.6457 14.5561C14.4384 14.7763 13.988 15.2546 13.988 16.1671C13.988 17.1372 14.6939 18.0744 14.7992 18.2143L14.8008 18.2164C14.8073 18.2251 14.819 18.2418 14.8357 18.2656C15.0741 18.6058 16.3352 20.4058 18.2013 21.2077C18.6762 21.4119 19.047 21.5338 19.3361 21.625C19.8129 21.7759 20.2469 21.7546 20.5898 21.7035C20.9723 21.6467 21.7675 21.2243 21.9335 20.7616C22.0993 20.2988 22.0993 19.9021 22.0495 19.8195Z" fill="white"/>
</svg>
