<svg width="44" height="44" viewBox="0 0 44 44" fill="none" xmlns="http://www.w3.org/2000/svg">
<rect x="0.5" y="0.5" width="43" height="43" rx="21.5" stroke="white"/>
<path fill-rule="evenodd" clip-rule="evenodd" d="M29.8139 15.418C30.6744 15.648 31.352 16.3256 31.582 17.1861C32 18.7458 32 22.0001 32 22.0001C32 22.0001 32 25.2543 31.582 26.8139C31.352 27.6744 30.6744 28.3522 29.8139 28.5821C28.254 29 21.9999 29 21.9999 29C21.9999 29 15.7458 29 14.1859 28.5821C13.3256 28.3522 12.6478 27.6744 12.4178 26.8139C12 25.2543 12 22.0001 12 22.0001C12 22.0001 12 18.7458 12.4178 17.1861C12.6478 16.3256 13.3256 15.648 14.1859 15.418C15.7458 15 21.9999 15 21.9999 15C21.9999 15 28.254 15 29.8139 15.418ZM25.1959 22.0001L19.9999 25.0001V19L25.1959 22.0001Z" fill="white"/>
</svg>
