<svg width="30" height="30" viewBox="0 0 30 30" fill="none" xmlns="http://www.w3.org/2000/svg">
<path d="M15 6.49689V23.0523M15 6.49689C17.4138 4.06227 22.2414 3.08843 27.069 5.03612V6.98383M15 6.49689C12.5862 4.06227 7.75862 3.08843 2.93103 5.03612V6.98383M15 23.0523C17.4138 19.6438 23.6897 20.1308 27.069 21.1046V6.98383M15 23.0523C19.3448 21.5915 26.5862 23.0523 29 25V7.95768C28.5172 7.47076 27.5517 7.14614 27.069 6.98383M15 23.0523C12.5862 19.6438 6.31034 20.1308 2.93103 21.1046V6.98383M15 23.0523C10.6552 21.5915 3.41379 23.0523 1 25V7.95768C1.48276 7.47076 2.44828 7.14614 2.93103 6.98383" stroke="black" stroke-linejoin="round"/>
</svg>
