<svg width="48" height="48" viewBox="0 0 48 48" fill="none" xmlns="http://www.w3.org/2000/svg">
<rect x="0.666667" y="0.666667" width="46.6667" height="46.6667" rx="23.3333" stroke="black" stroke-width="1.33333"/>
<path d="M35 23.7925C35 23.6875 34.9106 23.6006 34.8006 23.5957C30.8539 23.453 28.4519 22.9724 26.7714 21.3682C25.0876 19.7608 24.5859 17.4661 24.4364 13.6903C24.433 13.5853 24.3419 13.5 24.2302 13.5H23.7697C23.6598 13.5 23.5687 13.5853 23.5636 13.6903C23.4141 17.4645 22.9124 19.7608 21.2285 21.3682C19.5464 22.974 17.146 23.453 13.1993 23.5957C13.0893 23.599 13 23.6859 13 23.7925V24.2321C13 24.3371 13.0893 24.424 13.1993 24.4289C17.146 24.5716 19.5481 25.0522 21.2285 26.6564C22.9089 28.2605 23.4106 30.5487 23.5618 34.3097C23.5653 34.4147 23.6563 34.5 23.768 34.5H24.2302C24.3402 34.5 24.4312 34.4147 24.4364 34.3097C24.5876 30.5487 25.0893 28.2605 26.7697 26.6564C28.4519 25.0506 30.8522 24.5716 34.7989 24.4289C34.9089 24.4256 34.9983 24.3387 34.9983 24.2321V23.7925H35Z" fill="black"/>
</svg>
