<svg width="24" height="20" viewBox="0 0 24 20" fill="none" xmlns="http://www.w3.org/2000/svg">
<path fill-rule="evenodd" clip-rule="evenodd" d="M3 2.28557C2.28992 2.28557 1.71429 2.86121 1.71429 3.57129V16.4284C1.71429 17.1385 2.28992 17.7141 3 17.7141H21C21.7101 17.7141 22.2857 17.1385 22.2857 16.4284V3.57129C22.2857 2.86121 21.7101 2.28557 21 2.28557H3ZM0 3.57129C0 1.91443 1.34315 0.571289 3 0.571289H21C22.6569 0.571289 24 1.91443 24 3.57129V16.4284C24 18.0853 22.6569 19.4284 21 19.4284H3C1.34315 19.4284 0 18.0853 0 16.4284V3.57129Z" fill="#40C1AC"/>
<path fill-rule="evenodd" clip-rule="evenodd" d="M3.60913 4.33077C3.89976 3.9571 4.43828 3.88978 4.81195 4.18042L12 9.77112L19.1881 4.18042C19.5617 3.88978 20.1002 3.9571 20.3909 4.33077C20.6815 4.70444 20.6142 5.24296 20.2405 5.53359L12.5262 11.5336C12.2167 11.7743 11.7833 11.7743 11.4738 11.5336L3.75948 5.53359C3.38581 5.24296 3.3185 4.70444 3.60913 4.33077Z" fill="#40C1AC"/>
</svg>
