<svg width="36" height="36" viewBox="0 0 36 36" fill="none" xmlns="http://www.w3.org/2000/svg">
<rect x="0.5" y="0.5" width="35" height="35" rx="17.5" stroke="white"/>
<path d="M18.7847 22.9582C18.7847 22.9582 19.0734 22.9231 19.2213 22.749C19.3567 22.5896 19.352 22.2886 19.352 22.2886C19.352 22.2886 19.334 20.8835 19.9296 20.676C20.2842 20.5527 20.6998 21.0747 21.1496 21.6397C21.4441 22.0096 21.7534 22.398 22.0699 22.6359C22.674 23.0902 23.1326 22.9908 23.1326 22.9908L25.2697 22.9582C25.2697 22.9582 26.3872 22.8828 25.8574 21.92C25.8541 21.9139 25.8494 21.9047 25.8431 21.8921C25.767 21.7402 25.4503 21.1079 24.2688 19.9061L24.2319 19.8686C23.69 19.3181 23.4073 19.0308 23.3775 18.7139C23.3359 18.2705 23.7896 17.7692 24.722 16.4074C25.7048 14.9723 26.0977 14.0961 25.9748 13.7214C25.8582 13.3631 25.1351 13.4582 25.1351 13.4582L22.7296 13.4745C22.7296 13.4745 22.5511 13.448 22.4189 13.5345C22.2898 13.6194 22.206 13.8175 22.206 13.8175C22.206 13.8175 21.8257 14.9277 21.3178 15.8725C20.2465 17.8649 19.8184 17.9703 19.6431 17.8469C19.3013 17.6047 19.3176 16.9539 19.3318 16.3857C19.3345 16.2761 19.3372 16.1696 19.3372 16.0696C19.3372 15.625 19.3513 15.24 19.3636 14.9083C19.4044 13.7991 19.4234 13.2851 18.8167 13.1247C18.5554 13.0553 18.3629 13.0099 17.6938 13.0021C16.8353 12.9927 16.1091 13.0056 15.6975 13.2259C15.4236 13.3725 15.2123 13.7 15.3414 13.7189C15.5003 13.742 15.8602 13.8252 16.0512 14.1098C16.2977 14.4776 16.2891 15.3023 16.2891 15.3023C16.2891 15.3023 16.4307 17.5759 15.9581 17.858C15.6341 18.0518 15.1896 17.6565 14.2341 15.8484C13.745 14.9225 13.3756 13.8989 13.3756 13.8989C13.3756 13.8989 13.3044 13.7077 13.1768 13.6048C13.0227 13.4805 12.8075 13.442 12.8075 13.442L10.5216 13.4582C10.5216 13.4582 10.1781 13.4685 10.0521 13.6323C9.94016 13.7772 10.0435 14.0781 10.0435 14.0781C10.0435 14.0781 11.8332 18.6656 13.86 20.9778C15.7186 23.0971 17.8284 22.9582 17.8284 22.9582H18.7847Z" fill="white"/>
</svg>
