<svg width="20" height="19" viewBox="0 0 20 19" fill="none" xmlns="http://www.w3.org/2000/svg">
<path d="M9.70314 1.1436C9.81998 0.890278 10.18 0.890279 10.2969 1.1436L12.7447 6.45055C12.7923 6.55379 12.8902 6.62488 13.0031 6.63826L18.8067 7.32638C19.0838 7.35923 19.195 7.70164 18.9902 7.89105L14.6994 11.859C14.6159 11.9362 14.5786 12.0513 14.6007 12.1628L15.7397 17.895C15.7941 18.1686 15.5028 18.3802 15.2594 18.244L10.1597 15.3894C10.0605 15.3338 9.93953 15.3338 9.84032 15.3894L4.74062 18.244C4.49718 18.3802 4.20591 18.1686 4.26028 17.895L5.39926 12.1628C5.42142 12.0513 5.38405 11.9362 5.30058 11.859L1.0098 7.89105C0.804983 7.70164 0.916241 7.35923 1.19327 7.32638L6.99691 6.63826C7.10981 6.62488 7.20766 6.55379 7.25528 6.45055L9.70314 1.1436Z" fill="#FFE902"/>
</svg>
