<svg width="22" height="22" viewBox="0 0 22 22" fill="none" xmlns="http://www.w3.org/2000/svg">
<path d="M19.6431 15.2221C19.6431 15.4431 19.6022 15.7316 19.5204 16.0876C19.4385 16.4436 19.3526 16.724 19.2626 16.9286C19.0907 17.3378 18.5914 17.7716 17.7648 18.2299C16.9954 18.6473 16.2343 18.856 15.4813 18.856C15.2603 18.856 15.0455 18.8417 14.8368 18.8131C14.6281 18.7844 14.3928 18.7333 14.1309 18.6596C13.869 18.5859 13.6746 18.5266 13.5477 18.4816C13.4209 18.4366 13.1937 18.3527 12.8663 18.2299C12.539 18.1071 12.3384 18.0335 12.2648 18.0089C11.4627 17.7225 10.7466 17.3828 10.1163 16.99C9.06873 16.3434 7.98633 15.4615 6.86914 14.3443C5.75195 13.2271 4.87007 12.1447 4.22349 11.0971C3.83064 10.4669 3.49098 9.75074 3.20452 8.94866C3.17997 8.875 3.10631 8.67448 2.98354 8.3471C2.86077 8.01972 2.77688 7.7926 2.73186 7.66574C2.68685 7.53888 2.62751 7.34449 2.55385 7.08259C2.48019 6.82068 2.42904 6.58538 2.40039 6.37667C2.37174 6.16797 2.35742 5.95312 2.35742 5.73214C2.35742 4.97917 2.56613 4.21801 2.98354 3.44866C3.44187 2.62202 3.87565 2.12277 4.28488 1.95089C4.48949 1.86086 4.76981 1.77493 5.12584 1.69308C5.48186 1.61124 5.77037 1.57031 5.99135 1.57031C6.10593 1.57031 6.19187 1.58259 6.24916 1.60714C6.39648 1.65625 6.61337 1.96726 6.89983 2.54018C6.98986 2.69568 7.11263 2.91667 7.26814 3.20313C7.42364 3.48958 7.56687 3.74944 7.69782 3.9827C7.82878 4.21596 7.95564 4.4349 8.0784 4.63951C8.10296 4.67225 8.17457 4.77455 8.29325 4.94643C8.41192 5.1183 8.49991 5.26358 8.5572 5.38225C8.61449 5.50093 8.64314 5.61756 8.64314 5.73214C8.64314 5.89583 8.52651 6.10045 8.29325 6.34598C8.05999 6.59152 7.80627 6.81659 7.53209 7.02121C7.25791 7.22582 7.00418 7.44271 6.77093 7.67188C6.53767 7.90104 6.42104 8.08929 6.42104 8.23661C6.42104 8.31027 6.4415 8.40234 6.48242 8.51284C6.52334 8.62333 6.55813 8.70722 6.58677 8.76451C6.61542 8.8218 6.67271 8.92002 6.75865 9.05915C6.84459 9.19829 6.89165 9.27604 6.89983 9.29241C7.52186 10.4137 8.23391 11.3754 9.03599 12.1775C9.83808 12.9795 10.7998 13.6916 11.921 14.3136C11.9374 14.3218 12.0152 14.3689 12.1543 14.4548C12.2934 14.5407 12.3916 14.598 12.4489 14.6267C12.5062 14.6553 12.5901 14.6901 12.7006 14.731C12.8111 14.7719 12.9032 14.7924 12.9768 14.7924C13.1242 14.7924 13.3124 14.6758 13.5416 14.4425C13.7707 14.2093 13.9876 13.9555 14.1922 13.6814C14.3969 13.4072 14.6219 13.1535 14.8675 12.9202C15.113 12.6869 15.3176 12.5703 15.4813 12.5703C15.5959 12.5703 15.7125 12.599 15.8312 12.6563C15.9499 12.7135 16.0951 12.8015 16.267 12.9202C16.4389 13.0389 16.5412 13.1105 16.5739 13.135C16.7786 13.2578 16.9975 13.3847 17.2307 13.5156C17.464 13.6466 17.7239 13.7898 18.0103 13.9453C18.2968 14.1008 18.5178 14.2236 18.6733 14.3136C19.2462 14.6001 19.5572 14.817 19.6063 14.9643C19.6309 15.0216 19.6431 15.1075 19.6431 15.2221Z" fill="#ECEC42"/>
</svg>
