<svg width="30" height="30" viewBox="0 0 30 30" fill="none" xmlns="http://www.w3.org/2000/svg">
<path d="M1 20.4685C3.46163 20.7365 4.41894 19.986 4.96597 20.2004C5.64975 20.4685 4.00866 25.4272 6.88057 26.6334C9.75248 27.8395 12.0774 25.8292 12.0774 24.087C12.0774 22.3447 10.4363 21.2726 10.9833 20.4685C11.5303 19.6644 15.2228 19.9324 15.9066 20.4685C16.5904 21.0046 14.8125 24.4891 16.8639 25.9633C18.9152 27.4375 21.9239 26.9014 22.7444 24.8911C23.565 22.8808 21.6504 21.1386 22.1974 20.4685C22.7444 19.7984 25.2061 21.1386 28.078 20.4685M23.8385 17.118C23.8385 14.5448 26.756 11.5786 28.2147 10.4171M28.2147 10.4171L25.2061 10.9531M28.2147 10.4171L27.2574 13.3655M14.1283 4.92228C8.5212 12.1593 5.99684 20.8705 6.88059 23.6849C7.42767 25.4272 9.41099 25.7425 10.0261 24.6231C10.9834 22.8808 8.9314 22.6128 8.9314 20.8705C8.9314 15.3758 10.8461 9.47892 14.1283 4.92228ZM29 3C21.7147 8.62101 17.0342 16.4291 17.1667 19.3709C17.2486 21.192 19.0871 21.9864 19.9699 21.0547C21.3439 19.6047 19.4268 18.8391 19.8743 17.153C21.2856 11.8351 24.6532 6.60039 29 3Z" stroke="white" stroke-linecap="round" stroke-linejoin="round"/>
</svg>
