<svg width="30" height="31" viewBox="0 0 30 31" fill="none" xmlns="http://www.w3.org/2000/svg">
<path d="M8.11597 13.3934C9.5356 15.863 12.189 17.5246 15.2281 17.5246C15.5364 17.5246 15.8408 17.5075 16.1404 17.4742M8.11597 13.3934C7.41737 12.1782 7.01754 10.7672 7.01754 9.26229C7.01754 4.69916 10.6935 1 15.2281 1C19.7626 1 23.4386 4.69916 23.4386 9.26229C23.4386 10.7672 23.0388 12.1782 22.3402 13.3934M8.11597 13.3934L2 23.9508H8.11597L11.1228 29L15.2281 19.5698M16.1404 17.4742C18.7929 17.1791 21.0646 15.6125 22.3402 13.3934M16.1404 17.4742L15.2281 19.5698M22.3402 13.3934L28 23.4918H22.3402L19.3333 28.541L15.2281 19.5698M19.7895 9.26229C19.7895 11.7974 17.7473 13.8525 15.2281 13.8525C12.7089 13.8525 10.6667 11.7974 10.6667 9.26229C10.6667 6.72722 12.7089 4.67213 15.2281 4.67213C17.7473 4.67213 19.7895 6.72722 19.7895 9.26229Z" stroke="black"/>
</svg>
