<svg width="52" height="60" viewBox="0 0 52 60" fill="none" xmlns="http://www.w3.org/2000/svg">
<path fill-rule="evenodd" clip-rule="evenodd" d="M0 3.56166C0 1.59461 1.55208 0 3.46667 0H39.8667C41.7813 0 43.3333 1.59461 43.3333 3.56166V9.34937C43.3333 10.3329 42.5573 11.1302 41.6 11.1302C40.6427 11.1302 39.8667 10.3329 39.8667 9.34937V3.56166H3.46667V54.776L20.5088 39.0595C21.1675 38.4521 22.1658 38.4521 22.8245 39.0595L39.8667 54.776V44.966C39.8667 43.9825 40.6427 43.1852 41.6 43.1852C42.5573 43.1852 43.3333 43.9825 43.3333 44.966V57.7696C43.3333 59.6954 41.1143 60.7126 39.7194 59.4262L21.6667 42.7778L3.61396 59.4262C2.21901 60.7126 0 59.6954 0 57.7696V3.56166ZM41.6 16.4727C42.5573 16.4727 43.3333 17.27 43.3333 18.2535V25.3769H50.2667C51.224 25.3769 52 26.1742 52 27.1577C52 28.1412 51.224 28.9385 50.2667 28.9385H43.3333V36.0619C43.3333 37.0454 42.5573 37.8427 41.6 37.8427C40.6427 37.8427 39.8667 37.0454 39.8667 36.0619V28.9385H32.9333C31.976 28.9385 31.2 28.1412 31.2 27.1577C31.2 26.1742 31.976 25.3769 32.9333 25.3769H39.8667V18.2535C39.8667 17.27 40.6427 16.4727 41.6 16.4727Z" fill="white"/>
</svg>
