<svg width="50" height="50" viewBox="0 0 50 50" fill="none" xmlns="http://www.w3.org/2000/svg">
<path d="M25.3818 15.6243V26.2558M25.3818 26.2558H42.1818V44.4812C42.1818 45.32 41.498 46 40.6545 46H9.34546C8.50197 46 7.81818 45.32 7.81818 44.4812V26.2558H25.3818ZM25.3818 26.2558H44.4727C45.3162 26.2558 46 25.5758 46 24.737V17.1431C46 16.3043 45.3162 15.6243 44.4727 15.6243H5.52727C4.68378 15.6243 4 16.3043 4 17.1431V24.737C4 25.5758 4.68378 26.2558 5.52727 26.2558H25.3818ZM21.8271 13.8021C22.2053 13.8865 22.6038 13.783 22.876 13.5123C23.1483 13.2416 23.2521 12.8451 23.1674 12.4692C22.828 11.0905 21.5778 6.47394 20.294 5.19731C18.6946 3.60679 16.0915 3.60016 14.5 5.18282C12.9086 6.76536 12.915 9.35401 14.5146 10.9446C15.8194 12.2422 20.4408 13.4646 21.8271 13.8021ZM25.709 12.4691C25.6242 12.8452 25.7282 13.2414 26.0004 13.5122C26.2727 13.7829 26.6713 13.8862 27.0493 13.802C28.4357 13.4645 33.0781 12.2212 34.3619 10.9445C35.9613 9.35402 35.968 6.76536 34.3765 5.18271C32.7851 3.60017 30.182 3.60657 28.5824 5.1972C27.2777 6.49473 26.0484 11.0905 25.709 12.4691Z" stroke="white" stroke-width="1.5" stroke-linecap="round" stroke-linejoin="round"/>
<path d="M21 40L29 32.0324M26.5904 38.7316C26.5904 39.3877 27.1244 39.9195 27.7831 39.9195C28.4419 39.9195 28.9759 39.3877 28.9759 38.7316C28.9759 38.0755 28.4419 37.5437 27.7831 37.5437C27.1244 37.5437 26.5904 38.0755 26.5904 38.7316ZM21.0241 33.1879C21.0241 33.844 21.5581 34.3759 22.2169 34.3759C22.8756 34.3759 23.4096 33.844 23.4096 33.1879C23.4096 32.5319 22.8756 32 22.2169 32C21.5581 32 21.0241 32.5319 21.0241 33.1879Z" stroke="white" stroke-width="1.5" stroke-linecap="round" stroke-linejoin="round"/>
</svg>
