<svg width="116" height="38" viewBox="0 0 116 38" fill="none" xmlns="http://www.w3.org/2000/svg">
<g clip-path="url(#clip0_2001_1701)">
<path d="M13.8048 21.5553C11.0054 20.9597 8.45039 19.5471 6.46908 17.4998C5.21348 16.2223 3.93741 14.9516 2.08812 14.5122C1.81516 14.4446 1.40573 14.4243 1.49444 14.0188C1.52856 13.8431 1.82881 13.6673 2.04035 13.5862C3.56921 13.0318 5.22518 12.917 6.8171 13.255C5.75297 11.0496 5.24707 8.62067 5.34314 6.17817C5.26358 6.15224 5.18104 6.13634 5.09747 6.13086C-3.1936 14.742 -1.41256 30.011 10.7136 36.0739C10.8528 36.173 11.0199 36.2262 11.1912 36.2262C11.3626 36.2262 11.5297 36.173 11.6689 36.0739C13.7161 34.6748 16.0977 34.7221 18.4178 34.5058C19.2876 34.4095 20.168 34.5283 20.9801 34.8515C21.7923 35.1747 22.5109 35.6922 23.0717 36.3578C23.1496 36.4946 23.2612 36.6097 23.396 36.6924C23.5308 36.7751 23.6845 36.8228 23.8428 36.831C23.949 36.848 24.0573 36.848 24.1635 36.831C20.4289 33.0391 17.6268 28.4456 15.9748 23.4073C15.8352 22.9224 15.5553 22.4887 15.1696 22.1596C14.784 21.8305 14.3096 21.6204 13.8048 21.5553Z" fill="white"/>
<path d="M51.7322 14.7621C54.5914 12.1666 57.321 9.30072 60.0506 6.59705C60.8626 5.78596 61.7156 5.01541 62.4799 4.16376L62.5277 4.1232C62.682 3.96442 62.8032 3.77705 62.8844 3.57182C62.9655 3.36659 63.005 3.14752 63.0005 2.92716C62.9961 2.70679 62.9478 2.48946 62.8585 2.28759C62.7692 2.08573 62.6405 1.90329 62.4799 1.75074L62.439 1.69666C62.1355 1.36997 61.7137 1.17582 61.2659 1.15681C60.8182 1.13781 60.3811 1.29549 60.0506 1.59528C59.6944 1.87257 59.3612 2.17771 59.0543 2.50776L50.1218 11.3555V3.24451C50.1218 2.0211 49.4394 1.21676 48.2452 1.21676C47.051 1.25056 46.5187 2.02786 46.5187 3.24451V35.8845C46.4812 36.23 46.538 36.5791 46.6833 36.8954C46.8285 37.2116 47.0568 37.4835 47.3444 37.6824C47.6431 37.8826 47.9938 37.9929 48.3544 38.0001C49.3234 38.0001 50.1422 37.1755 50.1422 35.8304C50.1968 32.6063 50.2105 29.3822 50.1422 26.1648C50.111 25.661 50.194 25.1566 50.3853 24.6888C50.5766 24.2209 50.8713 23.8014 51.2477 23.4612C54.5164 20.3181 57.71 17.1075 60.9309 13.9105C61.4847 13.4092 62.0087 12.8766 62.5004 12.3153L62.5413 12.2747C62.6924 12.1119 62.8096 11.9212 62.8863 11.7135C62.9629 11.5057 62.9975 11.2851 62.988 11.0641C62.9785 10.8432 62.9251 10.6262 62.8309 10.4257C62.7367 10.2252 62.6035 10.045 62.439 9.89552L62.3366 9.78062C62.0246 9.47353 61.6027 9.30117 61.1629 9.30117C60.7231 9.30117 60.3011 9.47353 59.9892 9.78062C59.5306 10.1769 59.0954 10.5989 58.6858 11.0446L50.3606 19.4057C50.0894 18.585 50.0753 17.7022 50.3201 16.8734C50.5649 16.0446 51.0572 15.3086 51.7322 14.7621Z" fill="white"/>
<path d="M33.4373 12.1662C32.3576 13.7687 31.428 15.4655 30.6599 17.2355C30.462 17.6343 30.2641 18.0331 30.0799 18.4387C28.2988 22.3995 26.2107 26.1441 22.751 28.9492C22.5719 29.1258 22.431 29.3368 22.3372 29.5693C22.2433 29.8017 22.1983 30.0507 22.2051 30.301C21.8366 32.741 22.8397 34.5795 24.5661 36.2153C24.7872 36.4923 25.0976 36.6858 25.4454 36.7633C25.7932 36.8408 26.1573 36.7977 26.4768 36.6411C29.0007 35.621 31.2768 34.0811 33.1542 32.1236C35.0315 30.166 36.4672 27.8354 37.3661 25.2864C38.265 22.7374 38.6065 20.0283 38.368 17.3386C38.1295 14.649 37.3164 12.0403 35.9826 9.68555C34.9907 10.3544 34.1285 11.1947 33.4373 12.1662Z" fill="white"/>
<path d="M18.8886 14.1C16.8961 15.3843 16.4047 17.1687 16.3297 19.2708C16.2836 20.6062 16.4377 21.941 16.7869 23.2317C17.665 26.4004 19.1909 29.3567 21.2702 31.9172C21.0177 30.7681 21.7683 29.7137 21.4271 28.5376C20.4104 25.0093 21.2634 21.7785 23.5221 18.9261C26.0469 15.9049 28.9161 13.1831 32.0725 10.8151C33.1287 9.96613 34.4215 9.45677 35.7779 9.35512C33.9875 6.36682 31.4183 3.91075 28.3398 2.24448C28.222 2.14119 28.0808 2.06744 27.9283 2.02941C27.7757 1.99139 27.6161 1.99021 27.463 2.02598C27.3098 2.06175 27.1676 2.13342 27.0483 2.23495C26.9289 2.33649 26.8359 2.46493 26.7771 2.60947C25.6079 4.31738 24.5983 6.12732 23.7609 8.0168C22.7968 10.4868 21.0976 12.6082 18.8886 14.1Z" fill="white"/>
<path d="M8.2979 6.3264C9.05536 8.08379 9.44432 10.0237 10.9797 11.3755C12.8959 13.1978 14.2053 15.5558 14.7329 18.1347C14.8352 18.5334 14.7329 19.0539 15.5176 19.2094C15.5859 16.8639 16.78 14.8159 16.78 12.4502C16.78 8.24601 18.7385 5.01513 22.3347 2.70349L25.1325 0.88528C19.5028 -0.730159 14.0709 -0.108316 9.5535 2.53452L9.15089 2.77109C8.0113 3.447 7.58139 3.74441 7.62916 4.38653C7.76433 5.05964 7.98921 5.71198 8.2979 6.3264Z" fill="white"/>
<path d="M3.51433 14.1941C5.45232 15.1742 6.69428 16.8978 8.29108 18.182C10.0084 19.4757 11.9686 20.4178 14.0573 20.9533C11.9146 16.5058 6.61922 12.6125 3.51433 14.1941Z" fill="white"/>
<path d="M23.8087 26.9762C27.7461 22.9816 29.3429 17.7635 31.7586 13.0186C28.4421 15.1207 24.0134 23.0221 23.8087 26.9762Z" fill="white"/>
<path d="M17.517 12.3427C20.5741 9.82154 22.1437 6.25946 23.9179 2.87988C22.0313 3.6611 20.4184 4.97486 19.2803 6.65751C18.1421 8.34016 17.5289 10.3173 17.517 12.3427Z" fill="white"/>
<path d="M22.2051 27.8008C23.952 23.7453 25.0438 19.4667 27.6642 15.8506C23.9656 18.9733 20.9972 22.434 22.2051 27.8008Z" fill="white"/>
<path d="M10.8501 15.3362C9.02529 12.5784 7.48012 9.64868 6.23708 6.58984C6.27802 10.179 6.54415 13.6599 10.8501 15.3362Z" fill="white"/>
<path d="M24.7299 3.76465C22.7118 7.30005 20.3729 10.6461 17.7422 13.7614C21.8366 11.6053 23.0854 7.54978 24.7299 3.76465Z" fill="white"/>
<path d="M8.97346 10.9365L13.6956 18.4392C13.8048 15.7017 11.007 11.3624 8.97346 10.9365Z" fill="white"/>
<path d="M12.7949 36.7905C14.7435 37.6558 16.8861 38.0029 19.0115 37.7977C16.9506 37.3921 14.9649 36.5675 12.7949 36.7905Z" fill="white"/>
<path d="M15.9066 36.3105C17.5034 36.6079 18.9023 37.1352 20.6833 36.9865C18.6089 36.0267 17.6603 35.905 15.9066 36.3105Z" fill="white"/>
<path d="M18.9091 35.256C19.3049 35.6074 19.3936 35.7359 19.5096 35.7764C20.2466 36.0265 20.9904 36.2563 21.7342 36.4996C21.1542 35.6074 20.2739 35.2492 18.9091 35.256Z" fill="white"/>
<path d="M7.38349 6.70508C7.50732 7.75719 7.93366 8.75193 8.6118 9.57096C8.2979 8.57737 8.23648 7.48914 7.38349 6.70508Z" fill="white"/>
<path d="M67.2294 22.8659C67.391 23.0421 67.5771 23.1946 67.7821 23.3188C67.9959 23.4446 68.2253 23.5423 68.4645 23.6094C68.7164 23.6823 68.9745 23.7321 69.2356 23.7581C69.2711 23.907 69.3597 24.0382 69.4851 24.1276C69.6104 24.217 69.7642 24.2586 69.918 24.2448C70.0771 24.2504 70.2342 24.208 70.3684 24.1231C70.4317 24.0814 70.4861 24.0277 70.5282 23.9651C70.5704 23.9024 70.5996 23.832 70.614 23.7581C70.8735 23.736 71.1297 23.6861 71.3783 23.6094C71.6181 23.5438 71.8477 23.446 72.0607 23.3188C72.2655 23.1942 72.4515 23.0417 72.6135 22.8659C72.7704 22.6765 72.8927 22.4615 72.9751 22.2305C73.1784 21.6367 73.1541 20.9896 72.9069 20.4123C72.7831 20.1313 72.5908 19.8851 72.3473 19.6958C72.113 19.5077 71.8475 19.3613 71.5626 19.2633C71.2571 19.1522 70.9382 19.0818 70.614 19.0537C70.5715 18.9088 70.4812 18.7821 70.3575 18.6939C70.2338 18.6057 70.0839 18.5611 69.9317 18.5671C69.7778 18.5532 69.6241 18.5948 69.4987 18.6842C69.3734 18.7736 69.2848 18.9048 69.2493 19.0537C68.9254 19.0832 68.6066 19.1536 68.3007 19.2633C68.0144 19.3629 67.7469 19.5091 67.5092 19.6958C67.2694 19.8888 67.0779 20.134 66.9496 20.4123C66.8153 20.7265 66.748 21.0648 66.7517 21.4059C66.7482 21.6855 66.7897 21.9639 66.8745 22.2305C66.9579 22.4597 67.0776 22.6742 67.2294 22.8659ZM70.7164 20.2771C70.9771 20.3012 71.2198 20.4191 71.3988 20.6083C71.5665 20.8386 71.6567 21.1153 71.6567 21.3992C71.6567 21.683 71.5665 21.9597 71.3988 22.19C71.2203 22.3789 70.9768 22.4946 70.7164 22.5144V20.2771ZM68.5191 20.6083C68.6999 20.4215 68.9417 20.3042 69.2015 20.2771V22.5212C68.9417 22.4941 68.6999 22.3768 68.5191 22.19C68.3514 21.9597 68.2612 21.683 68.2612 21.3992C68.2612 21.1153 68.3514 20.8386 68.5191 20.6083Z" fill="white"/>
<path d="M74.49 24.1568C74.6498 24.2224 74.8222 24.2524 74.995 24.2447C75.239 24.2405 75.4763 24.1653 75.6774 24.0284C75.9287 23.8513 76.1363 23.6202 76.2847 23.3525L77.8952 20.7367V23.5147C77.8885 23.7184 77.9563 23.9176 78.0862 24.0757C78.1578 24.1471 78.2446 24.2017 78.3402 24.2356C78.4359 24.2695 78.5379 24.2818 78.639 24.2717C78.74 24.2818 78.8421 24.2695 78.9377 24.2356C79.0333 24.2017 79.1201 24.1471 79.1917 24.0757C79.3276 23.921 79.3963 23.7193 79.3828 23.5147V19.6349C79.3894 19.5052 79.3756 19.3752 79.3418 19.2497C79.319 19.1346 79.2751 19.0246 79.2122 18.9252C79.139 18.8145 79.0346 18.7276 78.9119 18.6751C78.7511 18.6139 78.5791 18.5863 78.407 18.594C78.1656 18.5885 77.928 18.6544 77.7246 18.7833C77.479 18.9666 77.2726 19.1964 77.1172 19.4592L75.5477 22.0682V19.324C75.5582 19.2214 75.5466 19.1177 75.5137 19.0198C75.4807 18.922 75.4272 18.8321 75.3567 18.7562C75.1997 18.6351 75.0064 18.5693 74.8073 18.5693C74.6083 18.5693 74.415 18.6351 74.258 18.7562C74.121 18.913 74.0523 19.1172 74.0669 19.324V23.2038C74.0533 23.3318 74.0533 23.461 74.0669 23.589C74.0928 23.7032 74.1366 23.8127 74.1966 23.9135C74.2668 24.0226 74.3693 24.1075 74.49 24.1568Z" fill="white"/>
<path d="M80.8977 19.7911H82.0305V23.4816C82.0185 23.6893 82.0896 23.8933 82.2284 24.0494C82.3827 24.1764 82.577 24.2459 82.7777 24.2459C82.9783 24.2459 83.1727 24.1764 83.327 24.0494C83.3976 23.9735 83.4511 23.8836 83.484 23.7858C83.5169 23.6879 83.5285 23.5842 83.5181 23.4816V19.7911H84.6509C84.8542 19.8056 85.0565 19.7507 85.2241 19.6356C85.3392 19.511 85.403 19.3483 85.403 19.1794C85.403 19.0105 85.3392 18.8478 85.2241 18.7232C85.0565 18.6081 84.8542 18.5533 84.6509 18.5677H80.8977C80.6966 18.5543 80.4968 18.6091 80.3313 18.7232C80.2719 18.7816 80.2247 18.8511 80.1926 18.9277C80.1604 19.0042 80.1438 19.0863 80.1438 19.1693C80.1438 19.2522 80.1604 19.3343 80.1926 19.4109C80.2247 19.4874 80.2719 19.5569 80.3313 19.6154C80.4944 19.7361 80.6942 19.7981 80.8977 19.7911Z" fill="white"/>
<path d="M87.4555 23.9684C87.9662 24.2249 88.5308 24.3586 89.1035 24.3586C89.6761 24.3586 90.2407 24.2249 90.7515 23.9684C91.2048 23.7374 91.578 23.3773 91.8228 22.9343C92.0347 22.5182 92.1574 22.0633 92.1832 21.598C92.209 21.1327 92.1374 20.6672 91.9729 20.2306C91.8398 19.882 91.6354 19.5644 91.3724 19.2978C91.0977 19.0215 90.7644 18.8091 90.3966 18.676C89.5606 18.3788 88.6463 18.3788 87.8103 18.676C87.4521 18.811 87.1266 19.0192 86.855 19.287C86.5834 19.5549 86.3718 19.8764 86.234 20.2306C86.0961 20.6078 86.0246 21.0056 86.0225 21.4067C86.0147 21.9333 86.139 22.4535 86.3841 22.9208C86.6301 23.3663 87.0026 23.7305 87.4555 23.9684ZM87.94 20.1427C88.2585 19.8482 88.678 19.6843 89.1137 19.6843C89.5495 19.6843 89.969 19.8482 90.2874 20.1427C90.5792 20.4982 90.7254 20.9494 90.6969 21.4067C90.7254 21.864 90.5792 22.3152 90.2874 22.6707C89.972 22.9659 89.5545 23.1303 89.1205 23.1303C88.6866 23.1303 88.2691 22.9659 87.9536 22.6707C87.683 22.3038 87.5372 21.8611 87.5372 21.4067C87.5372 20.9523 87.683 20.5097 87.9536 20.1427H87.94Z" fill="white"/>
<path d="M93.2695 24.2245C93.4526 24.2116 93.6335 24.1776 93.8086 24.1231C93.9808 24.0652 94.1405 23.9758 94.2794 23.8595C94.4334 23.7344 94.5609 23.5806 94.6547 23.4066C94.7654 23.1939 94.8436 22.9662 94.8868 22.7307C94.956 22.4018 94.9881 22.0663 94.9823 21.7304V19.7905H96.9612V23.481C96.9466 23.6878 97.0153 23.892 97.1523 24.0488C97.3088 24.1739 97.5039 24.2421 97.705 24.2421C97.9062 24.2421 98.1012 24.1739 98.2578 24.0488C98.3948 23.892 98.4635 23.6878 98.4489 23.481V19.3241C98.459 19.2637 98.459 19.202 98.4489 19.1416C98.4235 18.9641 98.328 18.8039 98.1834 18.6962C98.0388 18.5885 97.8569 18.542 97.6777 18.5671H94.2658C94.1612 18.5515 94.0544 18.5602 93.9538 18.5926C93.8532 18.6249 93.7616 18.6799 93.6861 18.7533C93.6107 18.8267 93.5535 18.9165 93.5191 19.0156C93.4847 19.1146 93.474 19.2203 93.4879 19.3241V21.7574C93.4879 22.3387 93.3582 22.7172 93.0989 22.8929L92.8737 23.0619L92.6758 23.2241C92.5667 23.3429 92.5038 23.4962 92.4984 23.6567C92.5022 23.7376 92.5222 23.817 92.5574 23.8901C92.5925 23.9632 92.6421 24.0286 92.7031 24.0826C92.7824 24.1439 92.8737 24.1882 92.9712 24.2127C93.0687 24.2371 93.1703 24.2411 93.2695 24.2245Z" fill="white"/>
<path d="M100.994 22.6636L100.933 22.792C100.883 22.8888 100.816 22.9758 100.735 23.0489C100.66 23.1107 100.566 23.1443 100.469 23.1435C100.333 23.13 100.195 23.13 100.059 23.1435C99.9602 23.1581 99.8673 23.2001 99.7913 23.2647C99.7152 23.3293 99.6591 23.4138 99.6294 23.5085C99.575 23.6453 99.575 23.7975 99.6294 23.9343C99.6961 24.0592 99.8047 24.1572 99.9365 24.2115C100.2 24.3184 100.484 24.3669 100.769 24.3534C101.018 24.3562 101.266 24.3243 101.506 24.2588C101.708 24.2048 101.898 24.113 102.066 23.9884C102.22 23.8725 102.358 23.736 102.475 23.5829C102.603 23.4124 102.713 23.2289 102.803 23.0354L104.447 19.6017C104.567 19.3974 104.601 19.1548 104.543 18.9258C104.503 18.8291 104.437 18.7448 104.353 18.6818C104.269 18.6187 104.17 18.5793 104.065 18.5676C103.988 18.5608 103.91 18.5608 103.833 18.5676C103.652 18.5754 103.478 18.6388 103.335 18.749C103.192 18.8592 103.087 19.0108 103.035 19.1827L101.95 21.5889L100.892 19.2165C100.841 19.0435 100.737 18.8908 100.594 18.7803C100.45 18.6698 100.275 18.6072 100.093 18.6014H99.8546C99.7498 18.6131 99.6502 18.6525 99.5661 18.7156C99.4821 18.7786 99.4167 18.8629 99.3769 18.9596C99.3179 19.2004 99.3546 19.4545 99.4793 19.6693L100.994 22.6636Z" fill="white"/>
<path d="M106.187 24.2448C106.287 24.2539 106.388 24.2411 106.482 24.2072C106.577 24.1733 106.662 24.1193 106.733 24.0488C106.802 23.973 106.854 23.8842 106.887 23.7878C106.92 23.6913 106.932 23.5893 106.924 23.4878V22.3455L107.443 21.9062L109.06 24.0015C109.123 24.092 109.208 24.1658 109.307 24.2164C109.406 24.2671 109.515 24.2931 109.626 24.2922C109.783 24.2928 109.934 24.2403 110.056 24.1435C110.134 24.0943 110.198 24.0276 110.245 23.9488C110.291 23.8701 110.318 23.7816 110.322 23.6906C110.33 23.5975 110.319 23.5037 110.288 23.4153C110.258 23.3269 110.209 23.2457 110.145 23.1769L108.501 21.0342L109.988 19.7838C110.154 19.6633 110.266 19.4842 110.302 19.2836C110.319 19.1913 110.315 19.0962 110.289 19.0059C110.263 18.9156 110.216 18.8326 110.152 18.7632C110.093 18.6931 110.019 18.6377 109.935 18.6013C109.851 18.5649 109.759 18.5486 109.667 18.5536C109.465 18.5563 109.27 18.6279 109.115 18.7564L106.931 20.5949V19.3242C106.941 19.2215 106.93 19.1179 106.897 19.02C106.864 18.9221 106.81 18.8323 106.74 18.7564C106.667 18.689 106.581 18.6374 106.487 18.6048C106.393 18.5722 106.293 18.5594 106.194 18.5671C106.094 18.5605 105.993 18.5738 105.898 18.6063C105.803 18.6388 105.716 18.6898 105.641 18.7564C105.504 18.9132 105.436 19.1173 105.45 19.3242V23.4878C105.437 23.6925 105.505 23.8941 105.641 24.0488C105.714 24.1171 105.8 24.1697 105.894 24.2035C105.987 24.2372 106.087 24.2513 106.187 24.2448Z" fill="white"/>
<path d="M115.399 22.826C115.22 22.8353 115.043 22.8718 114.874 22.9342C114.551 23.0514 114.208 23.1087 113.864 23.1032C113.617 23.1104 113.372 23.0618 113.148 22.9612C112.951 22.877 112.78 22.7443 112.649 22.576C112.528 22.4102 112.435 22.225 112.376 22.0285C112.254 21.6021 112.254 21.1503 112.376 20.7239C112.438 20.5306 112.53 20.3482 112.649 20.1832C112.778 20.0133 112.95 19.8803 113.148 19.7979C113.372 19.6973 113.617 19.6488 113.864 19.656C114.208 19.6483 114.55 19.7033 114.874 19.8182C115.039 19.8838 115.215 19.9204 115.393 19.9264C115.489 19.9303 115.586 19.9094 115.672 19.8656C115.758 19.8217 115.831 19.7565 115.884 19.6763C115.958 19.584 115.999 19.4698 116 19.3518C116.008 19.2327 115.972 19.1149 115.898 19.0206C115.813 18.9064 115.7 18.8156 115.57 18.757C115.032 18.5257 114.45 18.4127 113.864 18.4258C113.399 18.4175 112.936 18.4954 112.499 18.6556C112.131 18.7861 111.798 19.0016 111.53 19.2842C111.284 19.5582 111.094 19.8774 110.971 20.2238C110.711 20.9729 110.711 21.7863 110.971 22.5354C111.094 22.8797 111.284 23.1967 111.53 23.4682C111.801 23.7491 112.132 23.9662 112.499 24.1035C112.937 24.2606 113.399 24.3385 113.864 24.3333C114.451 24.3474 115.034 24.232 115.57 23.9954C115.705 23.944 115.819 23.8517 115.898 23.7318C115.971 23.6396 116.007 23.5242 116 23.4073C115.992 23.2536 115.925 23.1085 115.814 23.0009C115.703 22.8933 115.555 22.8309 115.399 22.826Z" fill="white"/>
<path d="M70.7641 33.4583C70.9633 33.473 71.1613 33.4179 71.3237 33.3028C71.3909 33.2501 71.4441 33.1819 71.4786 33.1042C71.5131 33.0264 71.5279 32.9415 71.5216 32.8567C71.5278 32.7711 71.5131 32.6851 71.4786 32.6063C71.4442 32.5275 71.391 32.458 71.3237 32.4039C71.1613 32.2888 70.9633 32.2338 70.7641 32.2484H67.7684C67.6792 32.2585 67.5929 32.2859 67.5144 32.3291C67.4359 32.3723 67.3667 32.4304 67.311 32.5001C67.2552 32.5698 67.2138 32.6497 67.1893 32.7353C67.1647 32.8208 67.1575 32.9103 67.1679 32.9987V37.1015C67.1581 37.2062 67.1699 37.3117 67.2028 37.4117C67.2356 37.5117 67.2888 37.6039 67.359 37.6828C67.5134 37.804 67.7046 37.8699 67.9015 37.8699C68.0985 37.8699 68.2897 37.804 68.444 37.6828C68.5799 37.5281 68.6486 37.3264 68.6351 37.1218V35.7699H70.5731C70.7733 35.7838 70.9725 35.7315 71.1395 35.6212C71.1974 35.5641 71.2435 35.4961 71.2748 35.4213C71.3062 35.3465 71.3224 35.2663 71.3224 35.1853C71.3224 35.1043 71.3062 35.024 71.2748 34.9492C71.2435 34.8744 71.1974 34.8065 71.1395 34.7493C70.9725 34.6391 70.7733 34.5868 70.5731 34.6006H68.6351V33.4583H70.7641Z" fill="white"/>
<path d="M72.6953 32.4444C72.5594 32.5991 72.4907 32.8008 72.5043 33.0054V37.1082C72.4907 37.3129 72.5594 37.5145 72.6953 37.6692C72.8497 37.7904 73.0409 37.8564 73.2378 37.8564C73.4348 37.8564 73.626 37.7904 73.7803 37.6692C73.849 37.5935 73.9013 37.5046 73.9341 37.4082C73.967 37.3118 73.9797 37.2097 73.9714 37.1082V32.9987C73.9797 32.8972 73.967 32.7951 73.9341 32.6987C73.9013 32.6023 73.849 32.5134 73.7803 32.4377C73.6252 32.3174 73.4336 32.2527 73.2367 32.2539C73.0397 32.2552 72.8489 32.3223 72.6953 32.4444Z" fill="white"/>
<path d="M79.2054 32.2484H75.5068C75.3057 32.2355 75.1061 32.2903 74.9404 32.4039C74.8771 32.461 74.8273 32.5311 74.7942 32.6094C74.7612 32.6876 74.7459 32.772 74.7493 32.8567C74.745 32.9406 74.7599 33.0243 74.793 33.1016C74.8261 33.1789 74.8765 33.2477 74.9404 33.3028C75.1061 33.4164 75.3057 33.4712 75.5068 33.4583H76.6259V37.0947C76.6134 37.2981 76.6792 37.4986 76.8102 37.6557C76.9628 37.7834 77.1562 37.8535 77.3561 37.8535C77.5559 37.8535 77.7493 37.7834 77.902 37.6557C77.9684 37.5788 78.0188 37.4897 78.0505 37.3934C78.0821 37.2971 78.0942 37.1957 78.0862 37.0947V33.4583H79.2054C79.4045 33.473 79.6025 33.4179 79.7649 33.3028C79.8321 33.2501 79.8853 33.1819 79.9198 33.1042C79.9543 33.0264 79.9691 32.9415 79.9628 32.8567C79.969 32.7711 79.9543 32.6851 79.9198 32.6063C79.8854 32.5275 79.8322 32.458 79.7649 32.4039C79.6025 32.2888 79.4045 32.2338 79.2054 32.2484Z" fill="white"/>
<path d="M85.497 32.9709C85.2278 32.6991 84.9017 32.4891 84.5417 32.3558C83.7163 32.065 82.8149 32.065 81.9895 32.3558C81.6309 32.492 81.3054 32.7016 81.0342 32.9709C80.7739 33.233 80.5717 33.5461 80.4405 33.8901C80.2817 34.3195 80.2126 34.7763 80.2372 35.2329C80.2618 35.6894 80.3797 36.1363 80.5838 36.5465C80.8291 36.9844 81.1963 37.3433 81.6415 37.5806C82.1457 37.8305 82.7018 37.9605 83.2656 37.9605C83.8294 37.9605 84.3855 37.8305 84.8897 37.5806C85.349 37.3505 85.7289 36.9906 85.9815 36.5465C86.1883 36.1372 86.3077 35.6901 86.3324 35.2331C86.357 34.7761 86.2864 34.3189 86.1248 33.8901C85.9863 33.5417 85.7719 33.2279 85.497 32.9709ZM84.412 36.2896C84.1018 36.5791 83.6918 36.7403 83.2656 36.7403C82.8394 36.7403 82.4294 36.5791 82.1192 36.2896C81.8534 35.9271 81.7103 35.4906 81.7103 35.0426C81.7103 34.5945 81.8534 34.158 82.1192 33.7955C82.4294 33.506 82.8394 33.3449 83.2656 33.3449C83.6918 33.3449 84.1018 33.506 84.412 33.7955C84.6778 34.158 84.8209 34.5945 84.8209 35.0426C84.8209 35.4906 84.6778 35.9271 84.412 36.2896Z" fill="white"/>
<path d="M90.6013 36.6416H88.6156V33.0052C88.6291 32.8005 88.5604 32.5989 88.4245 32.4441C88.2734 32.3187 88.0825 32.25 87.8854 32.25C87.6883 32.25 87.4974 32.3187 87.3463 32.4441C87.282 32.5219 87.2338 32.6115 87.2045 32.7078C87.1753 32.8041 87.1655 32.9051 87.1757 33.0052V37.1012C87.1642 37.2007 87.1752 37.3016 87.2078 37.3964C87.2405 37.4912 87.294 37.5776 87.3646 37.6494C87.4351 37.7213 87.5209 37.7766 87.6157 37.8116C87.7105 37.8465 87.8119 37.8601 87.9127 37.8515H90.6013C90.8026 37.866 91.0027 37.8111 91.1677 37.696C91.2325 37.6401 91.2835 37.5702 91.3166 37.4917C91.3497 37.4131 91.3642 37.3281 91.3588 37.2432C91.3636 37.1593 91.3489 37.0754 91.3158 36.998C91.2827 36.9207 91.232 36.8519 91.1677 36.797C91.0027 36.682 90.8026 36.627 90.6013 36.6416Z" fill="white"/>
<path d="M97.0295 32.9709C96.7603 32.6991 96.4342 32.4891 96.0741 32.3558C95.2487 32.065 94.3474 32.065 93.522 32.3558C93.1609 32.4911 92.833 32.7008 92.5598 32.9709C92.304 33.2366 92.1024 33.5487 91.9661 33.8901C91.8303 34.2606 91.7611 34.6518 91.7614 35.0459C91.7555 35.5672 91.8772 36.0821 92.1162 36.5465C92.3616 36.9844 92.7287 37.3433 93.1739 37.5806C93.6794 37.8305 94.2365 37.9606 94.8015 37.9606C95.3664 37.9606 95.9235 37.8305 96.429 37.5806C96.8718 37.3447 97.2348 36.9851 97.473 36.5465C97.7212 36.0852 97.8457 35.5685 97.8347 35.0459C97.8359 34.6511 97.7642 34.2594 97.6231 33.8901C97.4946 33.5448 97.2921 33.2312 97.0295 32.9709ZM95.9513 36.2896C95.6415 36.5826 95.2297 36.746 94.8015 36.746C94.3732 36.746 93.9614 36.5826 93.6516 36.2896C93.3859 35.9271 93.2427 35.4906 93.2427 35.0426C93.2427 34.5945 93.3859 34.158 93.6516 33.7955C93.9614 33.5025 94.3732 33.3391 94.8015 33.3391C95.2297 33.3391 95.6415 33.5025 95.9513 33.7955C96.2171 34.158 96.3602 34.5945 96.3602 35.0426C96.3602 35.4906 96.2171 35.9271 95.9513 36.2896Z" fill="white"/>
<path d="M103.853 32.9709C103.584 32.6991 103.258 32.4891 102.898 32.3558C102.073 32.065 101.171 32.065 100.346 32.3558C99.9849 32.4911 99.6569 32.7008 99.3837 32.9709C99.1279 33.2366 98.9264 33.5487 98.79 33.8901C98.6543 34.2606 98.585 34.6518 98.5853 35.0459C98.5794 35.5672 98.7012 36.0821 98.9402 36.5465C99.1756 36.978 99.5277 37.336 99.9569 37.5806C100.462 37.8305 101.02 37.9606 101.584 37.9606C102.149 37.9606 102.707 37.8305 103.212 37.5806C103.67 37.3486 104.049 36.9891 104.304 36.5465C104.546 36.0832 104.668 35.5675 104.659 35.0459C104.664 34.6508 104.592 34.2583 104.447 33.8901C104.319 33.5448 104.116 33.2312 103.853 32.9709ZM102.734 36.2896C102.425 36.5826 102.013 36.746 101.584 36.746C101.156 36.746 100.744 36.5826 100.435 36.2896C100.175 35.9248 100.035 35.4891 100.035 35.0426C100.035 34.596 100.175 34.1604 100.435 33.7955C100.744 33.5025 101.156 33.3391 101.584 33.3391C102.013 33.3391 102.425 33.5025 102.734 33.7955C103 34.158 103.143 34.5945 103.143 35.0426C103.143 35.4906 103 35.9271 102.734 36.2896Z" fill="white"/>
<path d="M108.5 34.681L109.974 33.4576C110.137 33.338 110.247 33.1615 110.282 32.9642C110.298 32.8729 110.293 32.779 110.267 32.6899C110.241 32.6008 110.195 32.5189 110.131 32.4505C110.074 32.381 110.001 32.3258 109.918 32.2894C109.835 32.2531 109.744 32.2364 109.654 32.241C109.455 32.2422 109.264 32.3142 109.115 32.4437L106.958 34.2552V32.998C106.966 32.8971 106.954 32.7956 106.923 32.6993C106.891 32.6031 106.84 32.5139 106.774 32.437C106.62 32.3158 106.428 32.2499 106.232 32.2499C106.035 32.2499 105.843 32.3158 105.689 32.437C105.553 32.5917 105.484 32.7933 105.498 32.998V37.1008C105.485 37.3042 105.551 37.5047 105.682 37.6618C105.837 37.783 106.028 37.8489 106.225 37.8489C106.422 37.8489 106.613 37.783 106.767 37.6618C106.834 37.5849 106.884 37.4957 106.916 37.3995C106.947 37.3032 106.959 37.2017 106.951 37.1008V35.972L107.47 35.5394L109.06 37.6145C109.124 37.7015 109.209 37.7721 109.306 37.8203C109.403 37.8685 109.511 37.893 109.62 37.8916C109.773 37.8927 109.922 37.8427 110.043 37.7497C110.119 37.6997 110.183 37.6328 110.23 37.5542C110.276 37.4756 110.303 37.3875 110.309 37.2968C110.315 37.1128 110.249 36.9337 110.125 36.7966L108.5 34.681Z" fill="white"/>
<path d="M115.509 35.1946C115.377 35.052 115.22 34.9351 115.045 34.8498C114.848 34.7464 114.642 34.6605 114.43 34.593C114.175 34.5111 113.915 34.4434 113.653 34.3902C113.4 34.3444 113.155 34.2672 112.922 34.1604C112.857 34.1277 112.801 34.0775 112.763 34.0154C112.724 33.9533 112.704 33.8818 112.704 33.8089C112.704 33.4912 112.97 33.329 113.509 33.329C113.861 33.3309 114.212 33.374 114.553 33.4574C114.691 33.4854 114.83 33.5035 114.97 33.5115C115.088 33.5204 115.206 33.4951 115.31 33.4387C115.415 33.3824 115.5 33.2973 115.556 33.1938C115.6 33.1176 115.623 33.0314 115.623 32.9438C115.623 32.8561 115.6 32.7699 115.556 32.6937C115.502 32.606 115.43 32.5298 115.346 32.4695C115.262 32.4092 115.166 32.3659 115.065 32.3422C114.538 32.1873 113.991 32.1121 113.441 32.1191C113.106 32.111 112.773 32.1543 112.452 32.2476C112.202 32.3229 111.97 32.447 111.769 32.6126C111.599 32.7612 111.462 32.943 111.367 33.1465C111.28 33.3614 111.236 33.591 111.237 33.8224C111.229 34.0346 111.272 34.2455 111.363 34.438C111.453 34.6306 111.587 34.7995 111.756 34.9309C112.235 35.2802 112.792 35.5119 113.38 35.6069C113.653 35.6562 113.919 35.7403 114.171 35.8569C114.245 35.8904 114.307 35.9449 114.35 36.0136C114.392 36.0822 114.413 36.1618 114.41 36.2422C114.416 36.3266 114.395 36.4108 114.35 36.4825C114.304 36.5541 114.237 36.6097 114.158 36.641C113.91 36.7245 113.648 36.7612 113.386 36.7492C112.997 36.7442 112.612 36.6733 112.247 36.5396C112.091 36.4864 111.927 36.4568 111.762 36.4518C111.66 36.4472 111.558 36.4715 111.469 36.5217C111.379 36.5719 111.306 36.6461 111.257 36.7356C111.2 36.8393 111.17 36.9554 111.169 37.0736C111.173 37.1912 111.219 37.3035 111.298 37.3913C111.392 37.4994 111.512 37.5829 111.646 37.6346C111.91 37.7338 112.182 37.8107 112.458 37.8644C112.78 37.9241 113.107 37.9535 113.434 37.9523C113.692 37.9513 113.95 37.9333 114.205 37.8982C114.439 37.8654 114.669 37.8041 114.888 37.7157C115.079 37.6353 115.256 37.5258 115.413 37.3913C115.568 37.2587 115.685 37.0887 115.754 36.8979C115.848 36.6849 115.892 36.454 115.884 36.2219C115.891 36.0232 115.856 35.8252 115.782 35.6407C115.721 35.4758 115.628 35.3243 115.509 35.1946Z" fill="white"/>
<path d="M115.406 28.3141C115.526 28.3141 115.64 28.2671 115.725 28.1834C115.809 28.0998 115.857 27.9863 115.857 27.868C115.857 27.7497 115.809 27.6362 115.725 27.5525C115.64 27.4689 115.526 27.4219 115.406 27.4219H67.2908C67.1713 27.4219 67.0568 27.4689 66.9723 27.5525C66.8878 27.6362 66.8404 27.7497 66.8404 27.868C66.8404 27.9863 66.8878 28.0998 66.9723 28.1834C67.0568 28.2671 67.1713 28.3141 67.2908 28.3141H115.406Z" fill="white"/>
</g>
<defs>
<clipPath id="clip0_2001_1701">
<rect width="116" height="38" fill="white"/>
</clipPath>
</defs>
</svg>
