<svg width="1329" height="1329" viewBox="0 0 1329 1329" fill="none" xmlns="http://www.w3.org/2000/svg">
<g opacity="0.5">
<path d="M879.482 1293.45C1140.97 1204.1 1329 956.257 1329 664.5C1329 397.783 1171.86 167.767 945.113 61.9826C933.4 78.101 921.283 98.254 908.419 121.752C896.638 143.273 884.534 166.998 871.727 192.153L870.539 194.486L870.536 194.492C858.117 218.885 845.059 244.534 831.169 270.403C775.076 374.87 703.626 486.629 598.473 540.228C560.63 629.901 560.366 724.637 584.66 819.152C612.111 925.947 670.781 1031.82 740.954 1128.1C733.291 1064.21 741.002 1030.42 749.122 1010.48C700.505 904.984 727.736 798.42 783.183 704.737C839.648 609.334 926.629 524.902 998.609 463.734C1046.5 423.038 1088.96 387.039 1126.01 362.228C1162.4 337.861 1197.15 321.718 1228.92 326.192C1235.26 327.086 1240.28 332.011 1241.29 338.335C1242.3 344.66 1239.07 350.904 1233.32 353.73C1228.14 356.278 1223.03 358.873 1218 361.515C1208.94 367.534 1199.22 376.446 1188.84 388.42C1173.13 406.533 1156.93 430.473 1140.11 458.856C1111.98 506.32 1082.99 564.698 1052.35 626.401L1052.35 626.405C1046.29 638.612 1040.16 650.95 1033.96 663.359C996.636 738.105 956.868 815.163 913.969 879.644C872.611 941.809 827.123 994.213 776.378 1020.9C768.8 1039.14 758.62 1079.96 778.739 1177.71C811.421 1218.85 845.601 1257.69 879.482 1293.45Z" fill="#EBECEC"/>
<path d="M691.547 1328.46C655.517 1325.3 621.561 1317.77 589.265 1310.06C584.718 1308.97 580.212 1307.89 575.745 1306.81C524.586 1294.48 478.465 1283.37 432.453 1287.36C504.692 1314.28 582.878 1329 664.5 1329C673.559 1329 682.576 1328.82 691.547 1328.46Z" fill="#EBECEC"/>
<path d="M390.042 1269.85C159.987 1165.38 0 933.624 0 664.5C0 485.733 70.5917 323.454 185.42 204.018C183.249 231.795 182.701 262.469 184.925 294.139C188.977 351.836 202.306 413.901 232.695 467.848C177.487 454.324 119.311 457.637 58.2619 480.914C52.1678 483.238 48.3564 489.324 48.927 495.822C49.4975 502.319 54.3113 507.648 60.7172 508.874C120.891 520.39 160.207 556.103 209.735 601.094C218.841 609.365 228.291 617.949 238.279 626.755C301.041 682.081 381.06 741.337 523.487 770.9C534.767 789.339 545.894 808.472 556.873 828.236C590.538 957.603 667.308 1083.84 753.717 1193.11C782.714 1229.78 812.865 1264.62 842.953 1297.13C833.339 1295.71 823.899 1294.03 814.598 1292.16C769.179 1239.52 720.442 1216.89 676.245 1208.85C632.839 1200.96 594.568 1207.35 570.395 1211.38C569.629 1211.51 568.876 1211.64 568.138 1211.76C560.658 1213 551.795 1214.22 542.131 1215.54L542.126 1215.54L542.123 1215.54C522.744 1218.19 500.144 1221.28 479.016 1225.95C447.197 1232.97 413.478 1244.46 392.027 1267.2C391.255 1268.02 390.593 1268.91 390.042 1269.85Z" fill="#EBECEC"/>
<path d="M251.745 143.704C276.236 176.698 292.991 212.846 305.402 245.458C313.068 265.603 319.17 284.668 324.354 300.861C324.831 302.353 325.301 303.82 325.763 305.262C331.417 322.89 335.68 335.615 339.722 343.39C341.18 346.194 344.364 350.418 350.125 356.916C353.866 361.136 358.185 365.766 363.161 371.099C365.692 373.811 368.393 376.706 371.273 379.821C388.113 398.032 409.504 422.09 431.763 454.017C471.806 511.454 514.253 593.772 539.186 713.228C536.624 650.657 546.318 588.219 572.127 527.621C562.745 463.226 568.672 357.595 621.266 255.716C665.894 169.27 743.815 86.1612 872.94 33.3484C807.382 11.7096 737.308 0 664.5 0C508.53 0 365.11 53.7359 251.745 143.704Z" fill="#EBECEC"/>
<path d="M805.463 256.601C754.837 350.888 694.697 444.708 612.831 498.205C628.373 458.462 649.078 428.469 670.035 403.665C682.061 389.431 694.111 376.967 705.593 365.091C706.985 363.651 708.368 362.22 709.742 360.796C722.235 347.844 734.234 335.154 743.503 322.093C756.287 304.08 768.778 279.726 782.016 253.691C782.616 252.511 783.218 251.326 783.823 250.136L783.824 250.135C796.755 224.691 810.744 197.164 827.237 169.947C847.305 136.829 870.71 104.815 899.547 78.4191C893.943 87.7755 888.379 97.5978 882.827 107.741C870.799 129.712 858.496 153.832 845.726 178.915L844.593 181.14L844.588 181.15C832.134 205.613 819.202 231.014 805.463 256.601Z" fill="#EBECEC"/>
<path d="M647.192 269.1C687.002 191.986 755.668 116.604 870.01 66.2827C842.871 93.2491 820.867 124.16 802.284 154.826C785.21 183.002 770.776 211.406 757.931 236.683L757.917 236.712C757.277 237.971 756.64 239.223 756.008 240.467C742.485 267.063 730.997 289.302 719.71 305.207C711.897 316.216 701.404 327.414 688.743 340.54C687.388 341.944 686.012 343.367 684.616 344.811L684.615 344.812C673.184 356.633 660.445 369.807 647.748 384.835C630.255 405.54 612.735 429.872 597.845 459.978C599.645 404.533 612.683 335.946 647.192 269.1Z" fill="#EBECEC"/>
<path d="M407.828 470.703C442.063 519.808 478.673 588.775 503.19 686.748C496.489 677.252 489.727 667.992 482.903 658.98C479.775 650.557 473.723 639.545 466.385 627.257C458.025 613.26 447.11 596.191 434.678 576.915C432.143 572.985 429.541 568.958 426.881 564.839C403.351 528.414 375.204 484.839 347.493 437.813C316.643 385.457 286.55 329.176 264.2 274.266C248.764 236.344 237.227 199.566 231.535 165.515C252.056 194.286 266.764 225.96 278.133 255.835C285.506 275.21 291.38 293.559 296.585 309.817L296.613 309.903C297.074 311.343 297.529 312.767 297.981 314.173C303.359 330.942 308.397 346.39 313.836 356.851C317.12 363.165 322.507 369.746 328.292 376.271C332.277 380.767 337.019 385.849 342.17 391.371L342.174 391.375C344.651 394.031 347.224 396.788 349.852 399.63C366.295 417.412 386.671 440.355 407.828 470.703Z" fill="#EBECEC"/>
<path d="M322.356 452.624C342.806 487.331 363.49 520.175 382.31 549.53C348.795 520.676 313.759 497.922 277.066 482.55C236.186 428.359 218.707 358.685 214.03 292.095C212.223 266.35 212.346 241.299 213.701 218.113C220.021 240.27 228.023 262.78 237.176 285.266C260.279 342.025 291.153 399.67 322.356 452.624Z" fill="#EBECEC"/>
<path d="M257.573 604.868C313.662 654.312 382.856 706.174 501.335 735.907C487.215 714.372 472.865 693.963 458.276 674.794C396.787 594.001 331.676 536.057 262.415 508.071C215.377 489.065 165.919 483.657 113.396 494.849C158.031 514.328 193.379 546.58 230.606 580.547C239.44 588.606 248.379 596.763 257.573 604.868Z" fill="#EBECEC"/>
<path d="M671.028 1237.56C698.599 1242.57 728.826 1254.22 759.085 1278.63C746.204 1275.05 733.415 1271.29 720.635 1267.53C678.964 1255.27 637.384 1243.04 592.972 1237.37C614.792 1234.3 641.635 1232.22 671.028 1237.56Z" fill="#EBECEC"/>
<path d="M581.275 1278.12C560.227 1273.02 539.07 1267.9 517.772 1264.03C585.842 1258.76 644.251 1275.87 707.288 1294.33C714.651 1296.49 722.076 1298.66 729.587 1300.82C683.043 1301.31 639.287 1292 596.04 1281.68C591.124 1280.5 586.202 1279.31 581.275 1278.12Z" fill="#EBECEC"/>
<path d="M889.677 863.483C861.019 906.559 831.68 942.676 801.509 968.363C817.75 932.388 833.039 894.191 848.647 855.193L848.654 855.177L848.872 854.632C850.007 851.797 851.143 848.956 852.282 846.113C876.55 785.522 901.933 722.978 933.475 662.193C980.769 571.05 1041.68 484.315 1132.61 415.568C1126.74 424.582 1120.87 434.082 1115.01 443.981C1086.27 492.468 1056.69 552.046 1026.06 613.731C1020.04 625.87 1013.97 638.09 1007.86 650.323C970.514 725.108 931.459 800.68 889.677 863.483Z" fill="#EBECEC"/>
<path d="M808.292 719.598C860.388 631.575 940.481 552.197 1009.98 492.396C968.716 541.491 935.676 594.604 907.577 648.754C875.295 710.966 849.436 774.749 825.197 835.264C824.05 838.129 822.906 840.987 821.766 843.835C803.172 890.287 785.461 934.531 766.281 975.058C736.575 889.045 759.791 801.544 808.292 719.598Z" fill="#EBECEC"/>
</g>
</svg>
