<svg width="69" height="48" viewBox="0 0 69 48" fill="none" xmlns="http://www.w3.org/2000/svg">
<g clip-path="url(#clip0_292_7957)">
<path d="M67.02 7.74C66.24 4.81 64.53 2.33 61.6 1.55C56.29 0.13 34.5 0 34.5 0C34.5 0 12.71 0.13 7.4 1.55C4.47 2.33 2.77 4.81 1.98 7.74C0.56 13.05 0.5 24 0.5 24C0.5 24 0.56 34.95 1.98 40.26C2.76 43.19 4.47 45.67 7.4 46.45C12.71 47.87 34.5 48 34.5 48C34.5 48 56.29 47.87 61.6 46.45C64.53 45.67 66.24 43.19 67.02 40.26C68.44 34.95 68.5 24 68.5 24C68.5 24 68.44 13.05 67.02 7.74Z" fill="#FF0000"/>
<path d="M45.5 24L27.5 14V34" fill="white"/>
</g>
<defs>
<clipPath id="clip0_292_7957">
<rect width="68" height="48" fill="white" transform="translate(0.5)"/>
</clipPath>
</defs>
</svg>
