<svg width="36" height="36" viewBox="0 0 36 36" fill="none" xmlns="http://www.w3.org/2000/svg">
<path d="M18 0C8.0749 0 0 8.0749 0 18C0 27.9251 8.0749 36 18 36C27.9251 36 36 27.9251 36 18C36 8.0749 27.9251 0 18 0ZM18 27.6845C17.6577 27.6845 17.3231 27.583 17.0384 27.3928C16.7538 27.2027 16.532 26.9323 16.401 26.6161C16.27 26.2998 16.2357 25.9518 16.3025 25.6161C16.3693 25.2804 16.5341 24.972 16.7762 24.7299C17.0182 24.4879 17.3266 24.323 17.6623 24.2562C17.9981 24.1895 18.3461 24.2237 18.6623 24.3547C18.9786 24.4857 19.2489 24.7076 19.4391 24.9922C19.6293 25.2768 19.7308 25.6114 19.7308 25.9538C19.7308 26.4128 19.5484 26.853 19.2238 27.1776C18.8993 27.5022 18.459 27.6845 18 27.6845ZM19.8796 10.2773L19.3829 20.835C19.3829 21.2022 19.237 21.5544 18.9773 21.8141C18.7177 22.0737 18.3655 22.2196 17.9983 22.2196C17.631 22.2196 17.2789 22.0737 17.0192 21.8141C16.7595 21.5544 16.6137 21.2022 16.6137 20.835L16.1169 10.2825V10.2782C16.106 10.0246 16.1466 9.77135 16.2361 9.53382C16.3257 9.29628 16.4624 9.07933 16.638 8.89602C16.8136 8.71271 17.0245 8.56683 17.258 8.46718C17.4915 8.36752 17.7427 8.31615 17.9965 8.31615C18.2504 8.31615 18.5016 8.36752 18.7351 8.46718C18.9686 8.56683 19.1795 8.71271 19.3551 8.89602C19.5307 9.07933 19.6674 9.29628 19.7569 9.53382C19.8465 9.77135 19.887 10.0246 19.8762 10.2782L19.8796 10.2773Z" fill="#E41E18"/>
</svg>
