<svg width="54" height="60" viewBox="0 0 54 60" fill="none" xmlns="http://www.w3.org/2000/svg">
<path fill-rule="evenodd" clip-rule="evenodd" d="M14.5306 43.6343C14.6974 44.5032 14.1496 45.347 13.3072 45.519C9.93681 46.2071 7.24463 47.1237 5.43739 48.1397C3.50349 49.227 3.10995 50.1108 3.10995 50.5225C3.10995 50.832 3.3194 51.4488 4.45417 52.279C5.54855 53.0797 7.233 53.8663 9.45447 54.5537C13.8776 55.9224 20.0813 56.7922 27 56.7922C33.9187 56.7922 40.1224 55.9224 44.5455 54.5537C46.767 53.8663 48.4515 53.0797 49.5458 52.279C50.6806 51.4488 50.8901 50.832 50.8901 50.5225C50.8901 50.1108 50.4965 49.227 48.5626 48.1397C46.7554 47.1237 44.0632 46.2071 40.6928 45.519C39.8504 45.347 39.3026 44.5032 39.4694 43.6343C39.6361 42.7653 40.4543 42.2003 41.2967 42.3723C44.8248 43.0926 47.8577 44.0901 50.051 45.3232C52.1176 46.4851 54 48.1854 54 50.5225C54 52.3872 52.7854 53.8417 51.345 54.8955C49.8642 55.9788 47.8223 56.8888 45.4392 57.6262C40.653 59.1072 34.1342 60 27 60C19.8658 60 13.347 59.1072 8.56083 57.6262C6.17765 56.8888 4.13577 55.9788 2.65497 54.8955C1.21456 53.8417 0 52.3872 0 50.5225C0 48.1854 1.88237 46.4851 3.949 45.3232C6.14228 44.0901 9.17523 43.0926 12.7033 42.3723C13.5458 42.2003 14.3639 42.7653 14.5306 43.6343Z" fill="white"/>
<path fill-rule="evenodd" clip-rule="evenodd" d="M9.18848 17.9274C9.18848 7.94585 17.2507 0 27 0C36.7493 0 44.8115 7.94585 44.8115 17.9274C44.8115 23.5545 41.921 30.5166 38.7545 36.5341C35.5406 42.642 31.8394 48.1446 29.8545 50.9661C29.527 51.4373 29.0987 51.8209 28.6042 52.0858C28.1073 52.352 27.5576 52.4908 27 52.4908C26.4424 52.4908 25.8927 52.352 25.3958 52.0858C24.9013 51.8209 24.473 51.4373 24.1454 50.966C22.1606 48.1434 18.4593 42.6386 15.2454 36.5301C12.0791 30.5121 9.18848 23.5505 9.18848 17.9274ZM27 3.74952C19.0491 3.74952 12.7508 10.1901 12.7508 17.9274C12.7508 22.4982 15.2036 28.7109 18.3618 34.7136C21.4639 40.6097 25.057 45.959 27 48.7228C28.9429 45.9603 32.5361 40.6129 35.6383 34.7175C38.7963 28.7158 41.2492 22.5024 41.2492 17.9274C41.2492 10.1901 34.9509 3.74952 27 3.74952Z" fill="white"/>
<path fill-rule="evenodd" clip-rule="evenodd" d="M27 14.9981C25.0326 14.9981 23.4377 16.6768 23.4377 18.7476C23.4377 20.8184 25.0326 22.4971 27 22.4971C28.9674 22.4971 30.5623 20.8184 30.5623 18.7476C30.5623 16.6768 28.9674 14.9981 27 14.9981ZM19.8754 18.7476C19.8754 14.606 23.0652 11.2485 27 11.2485C30.9348 11.2485 34.1246 14.606 34.1246 18.7476C34.1246 22.8892 30.9348 26.2466 27 26.2466C23.0652 26.2466 19.8754 22.8892 19.8754 18.7476Z" fill="white"/>
</svg>
