<svg aria-hidden="true" xmlns="http://www.w3.org/2000/svg" xmlns:xlink="http://www.w3.org/1999/xlink"><symbol viewBox="0 0 29 16" fill="none" id="icon-arrow" xmlns="http://www.w3.org/2000/svg">
<path d="M27.5 1.5L14.5 14.5L1.5 1.5" stroke="currentColor" stroke-width="2" stroke-linecap="round" stroke-linejoin="round"/>
</symbol><symbol viewBox="0 0 35 28" fill="none" id="icon-basket" xmlns="http://www.w3.org/2000/svg">
<path d="M1 1H7.84912L12.6404 20.4743M16.6632 22.6044H26.0947M11.8632 17.3757H29.1825L33 4.90718H8.80351M12.6404 20.4743C11.2978 20.8855 10.3193 22.1595 10.3193 23.6674C10.3193 25.5079 11.7771 27 13.5754 27C15.3738 27 16.8316 25.5079 16.8316 23.6674C16.8316 21.8269 15.3738 20.3348 13.5754 20.3348C13.2504 20.3348 12.9366 20.3835 12.6404 20.4743ZM32.4386 23.6674C32.4386 25.5079 30.9808 27 29.1825 27C27.3841 27 25.9263 25.5079 25.9263 23.6674C25.9263 21.8269 27.3841 20.3348 29.1825 20.3348C30.9808 20.3348 32.4386 21.8269 32.4386 23.6674Z" stroke="currentColor" stroke-width="1.5" stroke-miterlimit="10" stroke-linecap="round"/>
</symbol><symbol viewBox="0 0 24 24" fill="none" id="icon-close" xmlns="http://www.w3.org/2000/svg">
<path d="M18 6L6 18" stroke="currentColor" stroke-width="2" stroke-linecap="round" stroke-linejoin="round"/>
<path d="M6 6L18 18" stroke="currentColor" stroke-width="2" stroke-linecap="round" stroke-linejoin="round"/>
</symbol><symbol viewBox="0 0 30 30" fill="none" id="icon-search" xmlns="http://www.w3.org/2000/svg">
<path d="M27.7501 27.75L20.6001 20.6M23.625 13.3125C23.625 19.0079 19.0079 23.625 13.3125 23.625C7.61706 23.625 3 19.0079 3 13.3125C3 7.61706 7.61706 3 13.3125 3C19.0079 3 23.625 7.61706 23.625 13.3125Z" stroke="currentColor" stroke-width="1.5" stroke-linecap="round" stroke-linejoin="round"/>
</symbol><symbol viewBox="0 0 36 36" fill="none" id="icon-tg" xmlns="http://www.w3.org/2000/svg">
<rect x="0.5" y="0.5" width="35" height="35" rx="17.5" stroke="currentColor"/>
<path fill-rule="evenodd" clip-rule="evenodd" d="M16.0187 23.2126C16.3766 23.2126 16.5401 23.0584 16.7378 22.872L18.5214 21.1919L22.1976 23.8229C22.8742 24.1846 23.3626 23.9973 23.5311 23.2144L25.9448 12.1963C26.1919 11.2366 25.5671 10.8013 24.9198 11.086L10.7471 16.38C9.77963 16.7559 9.78527 17.2787 10.5707 17.5117L14.2078 18.6113L22.6279 13.4654C23.0254 13.2319 23.3902 13.3574 23.0908 13.6148L16.2681 19.5792L16.269 19.5798L16.0187 23.2126Z" fill="currentColor"/>
</symbol><symbol viewBox="0 0 36 36" fill="none" id="icon-vk" xmlns="http://www.w3.org/2000/svg">
<rect x="0.5" y="0.5" width="35" height="35" rx="17.5" stroke="currentColor"/>
<path d="M18.7847 22.9582C18.7847 22.9582 19.0734 22.9231 19.2213 22.749C19.3567 22.5896 19.352 22.2886 19.352 22.2886C19.352 22.2886 19.334 20.8835 19.9296 20.676C20.2842 20.5527 20.6998 21.0747 21.1496 21.6397C21.4441 22.0096 21.7534 22.398 22.0699 22.6359C22.674 23.0902 23.1326 22.9908 23.1326 22.9908L25.2697 22.9582C25.2697 22.9582 26.3872 22.8828 25.8574 21.92C25.8541 21.9139 25.8494 21.9047 25.8431 21.8921C25.767 21.7402 25.4503 21.1079 24.2688 19.9061L24.2319 19.8686C23.69 19.3181 23.4073 19.0308 23.3775 18.7139C23.3359 18.2705 23.7896 17.7692 24.722 16.4074C25.7048 14.9723 26.0977 14.0961 25.9748 13.7214C25.8582 13.3631 25.1351 13.4582 25.1351 13.4582L22.7296 13.4745C22.7296 13.4745 22.5511 13.448 22.4189 13.5345C22.2898 13.6194 22.206 13.8175 22.206 13.8175C22.206 13.8175 21.8257 14.9277 21.3178 15.8725C20.2465 17.8649 19.8184 17.9703 19.6431 17.8469C19.3013 17.6047 19.3176 16.9539 19.3318 16.3857C19.3345 16.2761 19.3372 16.1696 19.3372 16.0696C19.3372 15.625 19.3513 15.24 19.3636 14.9083C19.4044 13.7991 19.4234 13.2851 18.8167 13.1247C18.5554 13.0553 18.3629 13.0099 17.6938 13.0021C16.8353 12.9927 16.1091 13.0056 15.6975 13.2259C15.4236 13.3725 15.2123 13.7 15.3414 13.7189C15.5003 13.742 15.8602 13.8252 16.0512 14.1098C16.2977 14.4776 16.2891 15.3023 16.2891 15.3023C16.2891 15.3023 16.4307 17.5759 15.9581 17.858C15.6341 18.0518 15.1896 17.6565 14.2341 15.8484C13.745 14.9225 13.3756 13.8989 13.3756 13.8989C13.3756 13.8989 13.3044 13.7077 13.1768 13.6048C13.0227 13.4805 12.8075 13.442 12.8075 13.442L10.5216 13.4582C10.5216 13.4582 10.1781 13.4685 10.0521 13.6323C9.94016 13.7772 10.0435 14.0781 10.0435 14.0781C10.0435 14.0781 11.8332 18.6656 13.86 20.9778C15.7186 23.0971 17.8284 22.9582 17.8284 22.9582H18.7847Z" fill="currentColor"/>
</symbol><symbol viewBox="0 0 36 36" fill="none" id="icon-wh" xmlns="http://www.w3.org/2000/svg">
<rect x="0.5" y="0.5" width="35" height="35" rx="17.5" stroke="currentColor"/>
<path fill-rule="evenodd" clip-rule="evenodd" d="M18.0335 25.8625H18.0302C16.6969 25.8621 15.3868 25.5291 14.2232 24.8975L10 26L11.1302 21.8916C10.433 20.6892 10.0662 19.3253 10.0668 17.9279C10.0685 13.5565 13.6423 10 18.0334 10C20.1646 10.0009 22.1648 10.8266 23.6689 12.3252C25.173 13.8238 26.0008 15.8157 26 17.9342C25.9982 22.3046 22.4259 25.8607 18.0335 25.8625ZM14.6618 23.6049L14.42 23.4621L11.9139 24.1163L12.5828 21.6846L12.4254 21.4353C11.7626 20.3861 11.4125 19.1735 11.413 17.9283C11.4145 14.295 14.3849 11.3391 18.0373 11.3391C19.8059 11.3397 21.4684 12.026 22.7185 13.2716C23.9687 14.5172 24.6567 16.1728 24.656 17.9336C24.6546 21.5672 21.6842 24.5235 18.0347 24.5235H18.032C16.8438 24.523 15.6784 24.2053 14.6618 23.6049Z" fill="currentColor"/>
<path d="M22.0495 19.8195C22.0095 19.753 21.9157 19.7079 21.7769 19.6412C21.7432 19.625 21.7069 19.6075 21.668 19.5881C21.469 19.489 20.4903 19.0098 20.3078 18.9436C20.1254 18.8775 19.9927 18.8445 19.86 19.0428C19.7273 19.2411 19.3458 19.6873 19.2297 19.8195C19.1136 19.9517 18.9974 19.9683 18.7985 19.8691C18.7659 19.8529 18.7216 19.8338 18.6669 19.8102C18.3866 19.6892 17.8338 19.4505 17.1977 18.8859C16.6059 18.3605 16.2064 17.7118 16.0903 17.5135C15.9742 17.3152 16.0779 17.208 16.1776 17.1092C16.2372 17.0501 16.3057 16.9671 16.3742 16.8841C16.4085 16.8424 16.4429 16.8008 16.4762 16.7621C16.5608 16.6638 16.5974 16.5894 16.6472 16.4881C16.656 16.4702 16.6653 16.4515 16.6752 16.4317C16.7416 16.2994 16.7084 16.1838 16.6586 16.0846C16.6253 16.0182 16.4361 15.5597 16.2648 15.1447C16.1801 14.9395 16.0998 14.7449 16.0449 14.6136C15.9022 14.2726 15.7576 14.2734 15.6416 14.2741C15.6262 14.2742 15.6113 14.2743 15.597 14.2736C15.481 14.2678 15.3482 14.2666 15.2155 14.2666C15.0828 14.2666 14.8672 14.3161 14.6847 14.5145C14.673 14.5272 14.6599 14.5411 14.6457 14.5561C14.4384 14.7763 13.988 15.2546 13.988 16.1671C13.988 17.1372 14.6939 18.0744 14.7992 18.2143L14.8008 18.2164C14.8073 18.2251 14.819 18.2418 14.8357 18.2656C15.0741 18.6058 16.3352 20.4058 18.2013 21.2077C18.6762 21.4119 19.047 21.5338 19.3361 21.625C19.8129 21.7759 20.2469 21.7546 20.5898 21.7035C20.9723 21.6467 21.7675 21.2243 21.9335 20.7616C22.0993 20.2988 22.0993 19.9021 22.0495 19.8195Z" fill="currentColor"/>
</symbol><symbol viewBox="0 0 44 44" fill="none" id="icon-yt" xmlns="http://www.w3.org/2000/svg">
<rect x="0.5" y="0.5" width="43" height="43" rx="21.5" stroke="currentColor"/>
<path fill-rule="evenodd" clip-rule="evenodd" d="M29.8139 15.418C30.6744 15.648 31.352 16.3256 31.582 17.1861C32 18.7458 32 22.0001 32 22.0001C32 22.0001 32 25.2543 31.582 26.8139C31.352 27.6744 30.6744 28.3522 29.8139 28.5821C28.254 29 21.9999 29 21.9999 29C21.9999 29 15.7458 29 14.1859 28.5821C13.3256 28.3522 12.6478 27.6744 12.4178 26.8139C12 25.2543 12 22.0001 12 22.0001C12 22.0001 12 18.7458 12.4178 17.1861C12.6478 16.3256 13.3256 15.648 14.1859 15.418C15.7458 15 21.9999 15 21.9999 15C21.9999 15 28.254 15 29.8139 15.418ZM25.1959 22.0001L19.9999 25.0001V19L25.1959 22.0001Z" fill="currentColor"/>
</symbol></svg>