<svg aria-hidden="true" xmlns="http://www.w3.org/2000/svg" xmlns:xlink="http://www.w3.org/1999/xlink"><symbol viewBox="0 0 29 16" fill="none" id="icon-arrow" xmlns="http://www.w3.org/2000/svg">
<path d="M27.5 1.5L14.5 14.5L1.5 1.5" stroke="currentColor" stroke-width="2" stroke-linecap="round" stroke-linejoin="round"/>
</symbol><symbol viewBox="0 0 13 12" fill="none" id="icon-arrow-rotate" xmlns="http://www.w3.org/2000/svg">
<path d="M1.5 11L11.5 1M11.5 1H2.67647M11.5 1V9.82353" stroke="currentColor" stroke-width="2" stroke-linecap="round" stroke-linejoin="round"/>
</symbol><symbol viewBox="0 0 35 28" fill="none" id="icon-basket" xmlns="http://www.w3.org/2000/svg">
<path d="M1 1H7.84912L12.6404 20.4743M16.6632 22.6044H26.0947M11.8632 17.3757H29.1825L33 4.90718H8.80351M12.6404 20.4743C11.2978 20.8855 10.3193 22.1595 10.3193 23.6674C10.3193 25.5079 11.7771 27 13.5754 27C15.3738 27 16.8316 25.5079 16.8316 23.6674C16.8316 21.8269 15.3738 20.3348 13.5754 20.3348C13.2504 20.3348 12.9366 20.3835 12.6404 20.4743ZM32.4386 23.6674C32.4386 25.5079 30.9808 27 29.1825 27C27.3841 27 25.9263 25.5079 25.9263 23.6674C25.9263 21.8269 27.3841 20.3348 29.1825 20.3348C30.9808 20.3348 32.4386 21.8269 32.4386 23.6674Z" stroke="currentColor" stroke-width="1.5" stroke-miterlimit="10" stroke-linecap="round"/>
</symbol><symbol viewBox="0 0 30 30" fill="none" id="icon-book" xmlns="http://www.w3.org/2000/svg">
<path d="M15 6.49689V23.0523M15 6.49689C17.4138 4.06227 22.2414 3.08843 27.069 5.03612V6.98383M15 6.49689C12.5862 4.06227 7.75862 3.08843 2.93103 5.03612V6.98383M15 23.0523C17.4138 19.6438 23.6897 20.1308 27.069 21.1046V6.98383M15 23.0523C19.3448 21.5915 26.5862 23.0523 29 25V7.95768C28.5172 7.47076 27.5517 7.14614 27.069 6.98383M15 23.0523C12.5862 19.6438 6.31034 20.1308 2.93103 21.1046V6.98383M15 23.0523C10.6552 21.5915 3.41379 23.0523 1 25V7.95768C1.48276 7.47076 2.44828 7.14614 2.93103 6.98383" stroke="currentColor" stroke-linejoin="round"/>
</symbol><symbol viewBox="0 0 12 10" fill="none" id="icon-check" xmlns="http://www.w3.org/2000/svg">
<path fill-rule="evenodd" clip-rule="evenodd" d="M11.1101 0.56501C11.4354 0.83826 11.4776 1.32348 11.2044 1.64878L4.74283 9.34108C4.59962 9.51157 4.38958 9.61164 4.16696 9.61544C3.94435 9.61924 3.731 9.5264 3.58206 9.36091L0.812829 6.28399C0.52863 5.96821 0.554228 5.48183 0.870005 5.19763C1.18578 4.91343 1.67216 4.93903 1.95636 5.25481L4.13381 7.6742L10.0264 0.659251C10.2996 0.333953 10.7848 0.29176 11.1101 0.56501Z" fill="currentColor"/>
</symbol><symbol viewBox="0 0 24 24" fill="none" id="icon-close" xmlns="http://www.w3.org/2000/svg">
<path d="M18 6L6 18" stroke="currentColor" stroke-width="2" stroke-linecap="round" stroke-linejoin="round"/>
<path d="M6 6L18 18" stroke="currentColor" stroke-width="2" stroke-linecap="round" stroke-linejoin="round"/>
</symbol><symbol viewBox="0 0 30 30" fill="none" id="icon-decisions" xmlns="http://www.w3.org/2000/svg">
<path d="M1 20.4685C3.46163 20.7365 4.41894 19.986 4.96597 20.2004C5.64975 20.4685 4.00866 25.4272 6.88057 26.6334C9.75248 27.8395 12.0774 25.8292 12.0774 24.087C12.0774 22.3447 10.4363 21.2726 10.9833 20.4685C11.5303 19.6644 15.2228 19.9324 15.9066 20.4685C16.5904 21.0046 14.8125 24.4891 16.8639 25.9633C18.9152 27.4375 21.9239 26.9014 22.7444 24.8911C23.565 22.8808 21.6504 21.1386 22.1974 20.4685C22.7444 19.7984 25.2061 21.1386 28.078 20.4685M23.8385 17.118C23.8385 14.5448 26.756 11.5786 28.2147 10.4171M28.2147 10.4171L25.2061 10.9531M28.2147 10.4171L27.2574 13.3655M14.1283 4.92228C8.5212 12.1593 5.99684 20.8705 6.88059 23.6849C7.42767 25.4272 9.41099 25.7425 10.0261 24.6231C10.9834 22.8808 8.9314 22.6128 8.9314 20.8705C8.9314 15.3758 10.8461 9.47892 14.1283 4.92228ZM29 3C21.7147 8.62101 17.0342 16.4291 17.1667 19.3709C17.2486 21.192 19.0871 21.9864 19.9699 21.0547C21.3439 19.6047 19.4268 18.8391 19.8743 17.153C21.2856 11.8351 24.6532 6.60039 29 3Z" stroke="currentColor" stroke-linecap="round" stroke-linejoin="round"/>
</symbol><symbol viewBox="0 0 48 48" fill="none" id="icon-dzen" xmlns="http://www.w3.org/2000/svg">
<rect x="0.666667" y="0.666667" width="46.6667" height="46.6667" rx="23.3333" stroke="currentColor" stroke-width="1.33333"/>
<path d="M35 23.7925C35 23.6875 34.9106 23.6006 34.8006 23.5957C30.8539 23.453 28.4519 22.9724 26.7714 21.3682C25.0876 19.7608 24.5859 17.4661 24.4364 13.6903C24.433 13.5853 24.3419 13.5 24.2302 13.5H23.7697C23.6598 13.5 23.5687 13.5853 23.5636 13.6903C23.4141 17.4645 22.9124 19.7608 21.2285 21.3682C19.5464 22.974 17.146 23.453 13.1993 23.5957C13.0893 23.599 13 23.6859 13 23.7925V24.2321C13 24.3371 13.0893 24.424 13.1993 24.4289C17.146 24.5716 19.5481 25.0522 21.2285 26.6564C22.9089 28.2605 23.4106 30.5487 23.5618 34.3097C23.5653 34.4147 23.6563 34.5 23.768 34.5H24.2302C24.3402 34.5 24.4312 34.4147 24.4364 34.3097C24.5876 30.5487 25.0893 28.2605 26.7697 26.6564C28.4519 25.0506 30.8522 24.5716 34.7989 24.4289C34.9089 24.4256 34.9983 24.3387 34.9983 24.2321V23.7925H35Z" fill="currentColor"/>
</symbol><symbol viewBox="0 0 49 37" fill="none" id="icon-eye" xmlns="http://www.w3.org/2000/svg">
<path fill-rule="evenodd" clip-rule="evenodd" d="M24.513 0.92601C35.087 1.07601 43.762 10.583 48.107 18.763C48.107 18.763 46.578 21.892 45.144 23.895C44.45 24.864 43.72 25.808 42.953 26.721C42.406 27.371 41.841 28.004 41.255 28.619C36.018 34.119 28.497 38.222 20.555 36.629C11.732 34.859 4.53498 27.299 0.208984 19.168C0.208984 19.168 1.74498 16.036 3.18699 14.036C3.83299 13.139 4.51098 12.266 5.22098 11.419C5.76498 10.77 6.32898 10.137 6.91198 9.52201C11.539 4.64601 17.476 0.89201 24.513 0.92601ZM24.476 4.92601C18.586 4.90401 13.688 8.19301 9.81298 12.276C9.28598 12.831 8.77798 13.403 8.28598 13.989C7.63898 14.761 7.02098 15.558 6.43198 16.375C5.84298 17.191 5.23898 18.221 4.75998 19.096C8.57398 25.505 14.299 31.294 21.342 32.707C27.905 34.024 34.03 30.406 38.358 25.861C38.887 25.306 39.398 24.733 39.892 24.146C40.592 23.313 41.258 22.452 41.891 21.567C42.477 20.748 43.08 19.716 43.558 18.84C39.6 12.215 32.828 5.05601 24.476 4.92601Z" fill="currentColor"/>
<path fill-rule="evenodd" clip-rule="evenodd" d="M24.1576 10.948C28.5826 10.948 32.1756 14.541 32.1756 18.965C32.1756 23.39 28.5826 26.982 24.1576 26.982C19.7336 26.982 16.1406 23.39 16.1406 18.965C16.1406 14.541 19.7336 10.948 24.1576 10.948ZM24.1576 14.957C26.3706 14.957 28.1666 16.753 28.1666 18.965C28.1666 21.178 26.3706 22.974 24.1576 22.974C21.9456 22.974 20.1496 21.178 20.1496 18.965C20.1496 16.753 21.9456 14.957 24.1576 14.957Z" fill="currentColor"/>
</symbol><symbol viewBox="0 0 24 24" fill="none" id="icon-eye-off" xmlns="http://www.w3.org/2000/svg">
<g clip-path="url(#aiclip0_1_8148)">
<path d="M17.94 17.94C16.2306 19.243 14.1491 19.9649 12 20C5 20 1 12 1 12C2.24389 9.68192 3.96914 7.65663 6.06 6.06003M9.9 4.24002C10.5883 4.0789 11.2931 3.99836 12 4.00003C19 4.00003 23 12 23 12C22.393 13.1356 21.6691 14.2048 20.84 15.19M14.12 14.12C13.8454 14.4148 13.5141 14.6512 13.1462 14.8151C12.7782 14.9791 12.3809 15.0673 11.9781 15.0744C11.5753 15.0815 11.1752 15.0074 10.8016 14.8565C10.4281 14.7056 10.0887 14.4811 9.80385 14.1962C9.51897 13.9113 9.29439 13.572 9.14351 13.1984C8.99262 12.8249 8.91853 12.4247 8.92563 12.0219C8.93274 11.6191 9.02091 11.2219 9.18488 10.8539C9.34884 10.4859 9.58525 10.1547 9.88 9.88003" stroke="currentColor" stroke-width="2" stroke-linecap="round" stroke-linejoin="round"/>
<path d="M1 1L23 23" stroke="currentColor" stroke-width="2" stroke-linecap="round" stroke-linejoin="round"/>
</g>
<defs>
<clipPath id="aiclip0_1_8148">
<rect width="24" height="24" fill="currentColor"/>
</clipPath>
</defs>
</symbol><symbol viewBox="0 0 30 30" fill="none" id="icon-file" xmlns="http://www.w3.org/2000/svg">
<path d="M10.5005 9H19.5005M10.5005 13.5H19.5005M10.5005 18H15.0005M8.25012 3H21.7504C23.4073 3 24.7504 4.34318 24.7504 6.00006L24.7501 24.0001C24.75 25.6569 23.4069 27 21.75 27L8.24999 26.9999C6.59313 26.9999 5.24999 25.6568 5.25 23.9999L5.25012 5.99998C5.25013 4.34314 6.59327 3 8.25012 3Z" stroke="currentColor" stroke-width="1.5" stroke-linecap="round" stroke-linejoin="round"/>
</symbol><symbol viewBox="0 0 30 30" fill="none" id="icon-list" xmlns="http://www.w3.org/2000/svg">
<path d="M15.5 6H22M15.5 10.5H22M7.5 15H22M7.5 19.5H22M7.5 24H22M4 1V29.5H25.5V1H4ZM7.5 6H12.5V11H7.5V6Z" stroke="currentColor" stroke-linecap="round" stroke-linejoin="round"/>
</symbol><symbol viewBox="0 0 22 22" fill="none" id="icon-location" xmlns="http://www.w3.org/2000/svg">
<g clip-path="url(#anclip0_197_12053)">
<path d="M11.0007 1.83203C7.45773 1.83203 4.58398 4.70578 4.58398 8.2487C4.58398 13.0612 11.0007 20.1654 11.0007 20.1654C11.0007 20.1654 17.4173 13.0612 17.4173 8.2487C17.4173 4.70578 14.5436 1.83203 11.0007 1.83203ZM11.0007 10.5404C9.73565 10.5404 8.70898 9.5137 8.70898 8.2487C8.70898 6.9837 9.73565 5.95703 11.0007 5.95703C12.2657 5.95703 13.2923 6.9837 13.2923 8.2487C13.2923 9.5137 12.2657 10.5404 11.0007 10.5404Z" fill="currentColor"/>
</g>
<defs>
<clipPath id="anclip0_197_12053">
<rect width="22" height="22" fill="currentColor"/>
</clipPath>
</defs>
</symbol><symbol viewBox="0 0 23 24" fill="none" id="icon-location-circle" xmlns="http://www.w3.org/2000/svg">
<path fill-rule="evenodd" clip-rule="evenodd" d="M6.41988 17.4537C6.48782 17.8013 6.26465 18.1388 5.92144 18.2076C4.54833 18.4828 3.45152 18.8495 2.71523 19.2559C1.92735 19.6908 1.76702 20.0443 1.76702 20.209C1.76702 20.3328 1.85235 20.5795 2.31466 20.9116C2.76052 21.2319 3.44678 21.5465 4.35182 21.8215C6.15384 22.369 8.68126 22.7169 11.5 22.7169C14.3187 22.7169 16.8462 22.369 18.6482 21.8215C19.5532 21.5465 20.2395 21.2319 20.6853 20.9116C21.1477 20.5795 21.233 20.3328 21.233 20.209C21.233 20.0443 21.0727 19.6908 20.2848 19.2559C19.5485 18.8495 18.4517 18.4828 17.0786 18.2076C16.7353 18.1388 16.5122 17.8013 16.5801 17.4537C16.6481 17.1061 16.9814 16.8801 17.3246 16.9489C18.7619 17.237 19.9976 17.636 20.8911 18.1293C21.7331 18.594 22.5 19.2742 22.5 20.209C22.5 20.9549 22.0052 21.5367 21.4183 21.9582C20.8151 22.3915 19.9832 22.7555 19.0123 23.0505C17.0623 23.6429 14.4065 24 11.5 24C8.59348 24 5.93766 23.6429 3.98775 23.0505C3.01682 22.7555 2.18494 22.3915 1.58165 21.9582C0.994822 21.5367 0.5 20.9549 0.5 20.209C0.5 19.2742 1.26689 18.594 2.10885 18.1293C3.00241 17.636 4.23806 17.237 5.67542 16.9489C6.01864 16.8801 6.35195 17.1061 6.41988 17.4537Z" fill="currentColor"/>
<path fill-rule="evenodd" clip-rule="evenodd" d="M4.24346 7.17095C4.24346 3.17834 7.52805 0 11.5 0C15.472 0 18.7565 3.17834 18.7565 7.17095C18.7565 9.42181 17.5789 12.2066 16.2889 14.6137C14.9795 17.0568 13.4716 19.2579 12.6629 20.3864C12.5295 20.5749 12.355 20.7284 12.1536 20.8343C11.9511 20.9408 11.7272 20.9963 11.5 20.9963C11.2728 20.9963 11.0489 20.9408 10.8464 20.8343C10.645 20.7284 10.4705 20.5749 10.337 20.3864C9.52839 19.2574 8.02046 17.0555 6.7111 14.612C5.42113 12.2048 4.24346 9.42021 4.24346 7.17095ZM11.5 1.49981C8.26076 1.49981 5.69477 4.07604 5.69477 7.17095C5.69477 8.99929 6.69405 11.4844 7.98073 13.8855C9.24454 16.2439 10.7084 18.3836 11.5 19.4891C12.2916 18.3841 13.7555 16.2452 15.0193 13.887C16.3059 11.4863 17.3052 9.00097 17.3052 7.17095C17.3052 4.07604 14.7392 1.49981 11.5 1.49981Z" fill="currentColor"/>
<path fill-rule="evenodd" clip-rule="evenodd" d="M11.5 5.99923C10.6985 5.99923 10.0487 6.67071 10.0487 7.49903C10.0487 8.32735 10.6985 8.99884 11.5 8.99884C12.3015 8.99884 12.9513 8.32735 12.9513 7.49903C12.9513 6.67071 12.3015 5.99923 11.5 5.99923ZM8.59738 7.49903C8.59738 5.84239 9.89693 4.49942 11.5 4.49942C13.1031 4.49942 14.4026 5.84239 14.4026 7.49903C14.4026 9.15567 13.1031 10.4986 11.5 10.4986C9.89693 10.4986 8.59738 9.15567 8.59738 7.49903Z" fill="currentColor"/>
</symbol><symbol viewBox="0 0 24 20" fill="none" id="icon-mail" xmlns="http://www.w3.org/2000/svg">
<path fill-rule="evenodd" clip-rule="evenodd" d="M3 2.28557C2.28992 2.28557 1.71429 2.86121 1.71429 3.57129V16.4284C1.71429 17.1385 2.28992 17.7141 3 17.7141H21C21.7101 17.7141 22.2857 17.1385 22.2857 16.4284V3.57129C22.2857 2.86121 21.7101 2.28557 21 2.28557H3ZM0 3.57129C0 1.91443 1.34315 0.571289 3 0.571289H21C22.6569 0.571289 24 1.91443 24 3.57129V16.4284C24 18.0853 22.6569 19.4284 21 19.4284H3C1.34315 19.4284 0 18.0853 0 16.4284V3.57129Z" fill="currentColor"/>
<path fill-rule="evenodd" clip-rule="evenodd" d="M3.60913 4.33077C3.89976 3.9571 4.43828 3.88978 4.81195 4.18042L12 9.77112L19.1881 4.18042C19.5617 3.88978 20.1002 3.9571 20.3909 4.33077C20.6815 4.70444 20.6142 5.24296 20.2405 5.53359L12.5262 11.5336C12.2167 11.7743 11.7833 11.7743 11.4738 11.5336L3.75948 5.53359C3.38581 5.24296 3.3185 4.70444 3.60913 4.33077Z" fill="currentColor"/>
</symbol><symbol viewBox="0 0 30 31" fill="none" id="icon-medal" xmlns="http://www.w3.org/2000/svg">
<path d="M8.11597 13.3934C9.5356 15.863 12.189 17.5246 15.2281 17.5246C15.5364 17.5246 15.8408 17.5075 16.1404 17.4742M8.11597 13.3934C7.41737 12.1782 7.01754 10.7672 7.01754 9.26229C7.01754 4.69916 10.6935 1 15.2281 1C19.7626 1 23.4386 4.69916 23.4386 9.26229C23.4386 10.7672 23.0388 12.1782 22.3402 13.3934M8.11597 13.3934L2 23.9508H8.11597L11.1228 29L15.2281 19.5698M16.1404 17.4742C18.7929 17.1791 21.0646 15.6125 22.3402 13.3934M16.1404 17.4742L15.2281 19.5698M22.3402 13.3934L28 23.4918H22.3402L19.3333 28.541L15.2281 19.5698M19.7895 9.26229C19.7895 11.7974 17.7473 13.8525 15.2281 13.8525C12.7089 13.8525 10.6667 11.7974 10.6667 9.26229C10.6667 6.72722 12.7089 4.67213 15.2281 4.67213C17.7473 4.67213 19.7895 6.72722 19.7895 9.26229Z" stroke="currentColor"/>
</symbol><symbol viewBox="0 0 22 24" fill="none" id="icon-pdf" xmlns="http://www.w3.org/2000/svg">
<path d="M5.44444 6H16.5556M5.44444 10H16.5556M5.44444 18H16.5556M5.44531 14H16.5564M2.48148 23.5H19.5185C20.3367 23.5 21 22.8284 21 22V2C21 1.17157 20.3367 0.5 19.5185 0.5H2.48148C1.66328 0.5 1 1.17157 1 2V22C1 22.8284 1.66328 23.5 2.48148 23.5Z" stroke="currentColor" stroke-linecap="round"/>
</symbol><symbol viewBox="0 0 38 44" fill="none" id="icon-play" xmlns="http://www.w3.org/2000/svg">
<path d="M36.5 20.268C37.8333 21.0378 37.8333 22.9623 36.5 23.7321L3.5 42.7846C2.16667 43.5544 0.500002 42.5922 0.500002 41.0526L0.500004 2.94744C0.500004 1.40784 2.16667 0.445588 3.5 1.21539L36.5 20.268Z" fill="currentColor"/>
</symbol><symbol viewBox="0 0 18 18" fill="none" id="icon-plus" xmlns="http://www.w3.org/2000/svg">
<path fill-rule="evenodd" clip-rule="evenodd" d="M9.25 0.25C9.66421 0.25 10 0.585786 10 1V8.25H17.25C17.6642 8.25 18 8.58579 18 9C18 9.41421 17.6642 9.75 17.25 9.75H10V17C10 17.4142 9.66421 17.75 9.25 17.75C8.83579 17.75 8.5 17.4142 8.5 17V9.75H1.25C0.835786 9.75 0.5 9.41421 0.5 9C0.5 8.58579 0.835786 8.25 1.25 8.25H8.5V1C8.5 0.585786 8.83579 0.25 9.25 0.25Z" fill="currentColor"/>
</symbol><symbol viewBox="0 0 30 30" fill="none" id="icon-prev" xmlns="http://www.w3.org/2000/svg">
<path d="M19.0253 25.5L23.6576 25.5C24.3597 25.5 25.033 25.2234 25.5294 24.7312C26.0258 24.2389 26.3047 23.5712 26.3047 22.875L26.3047 7.125C26.3047 6.42881 26.0258 5.76113 25.5294 5.26885C25.033 4.77656 24.3597 4.5 23.6576 4.5L19.0253 4.5M18.6963 15L3.69629 15M3.69629 15L9.42773 21M3.69629 15L9.42773 9" stroke="currentColor" stroke-width="1.5" stroke-linecap="round" stroke-linejoin="round"/>
</symbol><symbol viewBox="0 0 30 30" fill="none" id="icon-profile" xmlns="http://www.w3.org/2000/svg">
<path d="M15 29C22.732 29 29 22.732 29 15C29 7.26801 22.732 1 15 1C7.26801 1 1 7.26801 1 15C1 22.732 7.26801 29 15 29Z" stroke="currentColor" stroke-width="1.5" stroke-miterlimit="10" stroke-linecap="round" stroke-linejoin="round"/>
<path d="M15 18.5929C10.6637 18.5929 6.9469 21.0708 5.0885 24.7876C7.56637 27.3894 11.1593 28.8761 15 28.8761C18.8407 28.8761 22.4336 27.2655 24.9115 24.7876C23.0531 21.1947 19.3363 18.5929 15 18.5929Z" stroke="currentColor" stroke-width="1.5" stroke-miterlimit="10" stroke-linecap="round" stroke-linejoin="round"/>
<path d="M15 15.3717C17.4633 15.3717 19.4602 13.3748 19.4602 10.9115C19.4602 8.44822 17.4633 6.45133 15 6.45133C12.5367 6.45133 10.5398 8.44822 10.5398 10.9115C10.5398 13.3748 12.5367 15.3717 15 15.3717Z" stroke="currentColor" stroke-width="1.5" stroke-miterlimit="10" stroke-linecap="round" stroke-linejoin="round"/>
</symbol><symbol viewBox="0 0 32 28" fill="none" id="icon-question" xmlns="http://www.w3.org/2000/svg">
<circle cx="15.5" cy="16.75" r="0.5" stroke="currentColor" stroke-linecap="round" stroke-linejoin="round"/>
<path d="M13.5 6.75C14.5 4.25001 17.7501 4.75 18.5 6.24996C20.0768 9.40395 15.5 9.77421 15.5 13.2745" stroke="currentColor" stroke-linecap="round" stroke-linejoin="round"/>
<path d="M27 1.08301H5C2.79086 1.08301 1 2.87387 1 5.08301V17.9163C1 20.1255 2.79086 21.9163 5 21.9163H8.5V26.9163L14.5826 22.3206C14.9298 22.0583 15.3531 21.9163 15.7883 21.9163H27C29.2091 21.9163 31 20.1255 31 17.9163V5.08301C31 2.87387 29.2091 1.08301 27 1.08301Z" stroke="currentColor" stroke-linejoin="round"/>
</symbol><symbol viewBox="0 0 30 30" fill="none" id="icon-search" xmlns="http://www.w3.org/2000/svg">
<path d="M27.7501 27.75L20.6001 20.6M23.625 13.3125C23.625 19.0079 19.0079 23.625 13.3125 23.625C7.61706 23.625 3 19.0079 3 13.3125C3 7.61706 7.61706 3 13.3125 3C19.0079 3 23.625 7.61706 23.625 13.3125Z" stroke="currentColor" stroke-width="1.5" stroke-linecap="round" stroke-linejoin="round"/>
</symbol><symbol viewBox="0 0 27 31" fill="none" id="icon-share" xmlns="http://www.w3.org/2000/svg">
<path d="M17.6637 25.3026C17.6627 24.5554 17.8613 23.8218 18.238 23.1783L8.76519 17.617C8.39876 18.2514 7.87393 18.7775 7.24253 19.1433C6.61113 19.5091 5.89558 19.7017 5.16734 19.7015C4.06225 19.701 3.00198 19.2584 2.22056 18.4707C1.43914 17.6831 1.00044 16.6147 1 15.5008C1.00044 14.387 1.4399 13.3191 2.22136 12.5317C3.00283 11.7443 4.0624 11.3018 5.16734 11.3018C5.89583 11.3015 6.61165 11.4938 7.24334 11.8595C7.87502 12.2253 8.4001 12.7517 8.76681 13.3862L18.2316 7.81686C17.8591 7.17491 17.6628 6.44435 17.6637 5.70065C17.6639 5.1488 17.7723 4.60229 17.982 4.09253C18.1917 3.58278 18.4986 3.11956 18.8859 2.7295C19.2731 2.33944 19.733 2.03016 20.2389 1.81918C20.7448 1.6082 21.2868 1.49978 21.8343 1.5C22.3814 1.5 22.9233 1.60847 23.4288 1.81959C23.9343 2.03071 24.3934 2.34023 24.7802 2.73031C25.1671 3.12039 25.4741 3.58372 25.6833 4.09335C25.8926 4.60297 26.0002 5.1491 26 5.70065C26.0002 6.25212 25.8926 6.79802 25.6833 7.30755C25.4741 7.81708 25.1671 8.28023 24.7802 8.67018C24.3934 9.06012 23.9343 9.36915 23.4288 9.58009C22.9233 9.79102 22.3814 9.89949 21.8343 9.89927C21.1055 9.89968 20.3897 9.70776 19.7575 9.34233C19.1253 8.9769 18.5993 8.45108 18.2316 7.81686L8.76681 13.3862C9.13816 14.028 9.3339 14.7579 9.33306 15.5008C9.33428 16.244 9.13794 16.9742 8.76519 17.6154L18.238 23.1766C18.605 22.5436 19.1305 22.0186 19.7615 21.654C20.3926 21.2894 21.1069 21.0979 21.8343 21.0987C22.3816 21.0987 22.924 21.2075 23.4296 21.4187C23.9353 21.6299 24.3942 21.9396 24.7811 22.3298C25.1679 22.7201 25.475 23.1834 25.6842 23.6933C25.8933 24.2031 26.0004 24.7493 26 25.301C26 26.4146 25.5615 27.4826 24.7802 28.2701C23.999 29.0575 22.9391 29.5 21.8343 29.5C20.7292 29.5004 19.6695 29.0584 18.8875 28.2713C18.1055 27.4843 17.665 26.4165 17.6637 25.3026V25.3026Z" stroke="currentColor" stroke-width="1.5" stroke-linecap="round"/>
</symbol><symbol viewBox="0 0 20 19" fill="none" id="icon-star" xmlns="http://www.w3.org/2000/svg">
<path d="M9.70314 1.1436C9.81998 0.890278 10.18 0.890279 10.2969 1.1436L12.7447 6.45055C12.7923 6.55379 12.8902 6.62488 13.0031 6.63826L18.8067 7.32638C19.0838 7.35923 19.195 7.70164 18.9902 7.89105L14.6994 11.859C14.6159 11.9362 14.5786 12.0513 14.6007 12.1628L15.7397 17.895C15.7941 18.1686 15.5028 18.3802 15.2594 18.244L10.1597 15.3894C10.0605 15.3338 9.93953 15.3338 9.84032 15.3894L4.74062 18.244C4.49718 18.3802 4.20591 18.1686 4.26028 17.895L5.39926 12.1628C5.42142 12.0513 5.38405 11.9362 5.30058 11.859L1.0098 7.89105C0.804983 7.70164 0.916241 7.35923 1.19327 7.32638L6.99691 6.63826C7.10981 6.62488 7.20766 6.55379 7.25528 6.45055L9.70314 1.1436Z" fill="currentColor"/>
</symbol><symbol viewBox="0 0 22 22" fill="none" id="icon-tel" xmlns="http://www.w3.org/2000/svg">
<path d="M19.6431 15.2221C19.6431 15.4431 19.6022 15.7316 19.5204 16.0876C19.4385 16.4436 19.3526 16.724 19.2626 16.9286C19.0907 17.3378 18.5914 17.7716 17.7648 18.2299C16.9954 18.6473 16.2343 18.856 15.4813 18.856C15.2603 18.856 15.0455 18.8417 14.8368 18.8131C14.6281 18.7844 14.3928 18.7333 14.1309 18.6596C13.869 18.5859 13.6746 18.5266 13.5477 18.4816C13.4209 18.4366 13.1937 18.3527 12.8663 18.2299C12.539 18.1071 12.3384 18.0335 12.2648 18.0089C11.4627 17.7225 10.7466 17.3828 10.1163 16.99C9.06873 16.3434 7.98633 15.4615 6.86914 14.3443C5.75195 13.2271 4.87007 12.1447 4.22349 11.0971C3.83064 10.4669 3.49098 9.75074 3.20452 8.94866C3.17997 8.875 3.10631 8.67448 2.98354 8.3471C2.86077 8.01972 2.77688 7.7926 2.73186 7.66574C2.68685 7.53888 2.62751 7.34449 2.55385 7.08259C2.48019 6.82068 2.42904 6.58538 2.40039 6.37667C2.37174 6.16797 2.35742 5.95312 2.35742 5.73214C2.35742 4.97917 2.56613 4.21801 2.98354 3.44866C3.44187 2.62202 3.87565 2.12277 4.28488 1.95089C4.48949 1.86086 4.76981 1.77493 5.12584 1.69308C5.48186 1.61124 5.77037 1.57031 5.99135 1.57031C6.10593 1.57031 6.19187 1.58259 6.24916 1.60714C6.39648 1.65625 6.61337 1.96726 6.89983 2.54018C6.98986 2.69568 7.11263 2.91667 7.26814 3.20313C7.42364 3.48958 7.56687 3.74944 7.69782 3.9827C7.82878 4.21596 7.95564 4.4349 8.0784 4.63951C8.10296 4.67225 8.17457 4.77455 8.29325 4.94643C8.41192 5.1183 8.49991 5.26358 8.5572 5.38225C8.61449 5.50093 8.64314 5.61756 8.64314 5.73214C8.64314 5.89583 8.52651 6.10045 8.29325 6.34598C8.05999 6.59152 7.80627 6.81659 7.53209 7.02121C7.25791 7.22582 7.00418 7.44271 6.77093 7.67188C6.53767 7.90104 6.42104 8.08929 6.42104 8.23661C6.42104 8.31027 6.4415 8.40234 6.48242 8.51284C6.52334 8.62333 6.55813 8.70722 6.58677 8.76451C6.61542 8.8218 6.67271 8.92002 6.75865 9.05915C6.84459 9.19829 6.89165 9.27604 6.89983 9.29241C7.52186 10.4137 8.23391 11.3754 9.03599 12.1775C9.83808 12.9795 10.7998 13.6916 11.921 14.3136C11.9374 14.3218 12.0152 14.3689 12.1543 14.4548C12.2934 14.5407 12.3916 14.598 12.4489 14.6267C12.5062 14.6553 12.5901 14.6901 12.7006 14.731C12.8111 14.7719 12.9032 14.7924 12.9768 14.7924C13.1242 14.7924 13.3124 14.6758 13.5416 14.4425C13.7707 14.2093 13.9876 13.9555 14.1922 13.6814C14.3969 13.4072 14.6219 13.1535 14.8675 12.9202C15.113 12.6869 15.3176 12.5703 15.4813 12.5703C15.5959 12.5703 15.7125 12.599 15.8312 12.6563C15.9499 12.7135 16.0951 12.8015 16.267 12.9202C16.4389 13.0389 16.5412 13.1105 16.5739 13.135C16.7786 13.2578 16.9975 13.3847 17.2307 13.5156C17.464 13.6466 17.7239 13.7898 18.0103 13.9453C18.2968 14.1008 18.5178 14.2236 18.6733 14.3136C19.2462 14.6001 19.5572 14.817 19.6063 14.9643C19.6309 15.0216 19.6431 15.1075 19.6431 15.2221Z" fill="currentColor"/>
</symbol><symbol viewBox="0 0 36 36" fill="none" id="icon-tg" xmlns="http://www.w3.org/2000/svg">
<rect x="0.5" y="0.5" width="35" height="35" rx="17.5" stroke="currentColor"/>
<path fill-rule="evenodd" clip-rule="evenodd" d="M16.0187 23.2126C16.3766 23.2126 16.5401 23.0584 16.7378 22.872L18.5214 21.1919L22.1976 23.8229C22.8742 24.1846 23.3626 23.9973 23.5311 23.2144L25.9448 12.1963C26.1919 11.2366 25.5671 10.8013 24.9198 11.086L10.7471 16.38C9.77963 16.7559 9.78527 17.2787 10.5707 17.5117L14.2078 18.6113L22.6279 13.4654C23.0254 13.2319 23.3902 13.3574 23.0908 13.6148L16.2681 19.5792L16.269 19.5798L16.0187 23.2126Z" fill="currentColor"/>
</symbol><symbol viewBox="0 0 36 36" fill="none" id="icon-vk" xmlns="http://www.w3.org/2000/svg">
<rect x="0.5" y="0.5" width="35" height="35" rx="17.5" stroke="currentColor"/>
<path d="M18.7847 22.9582C18.7847 22.9582 19.0734 22.9231 19.2213 22.749C19.3567 22.5896 19.352 22.2886 19.352 22.2886C19.352 22.2886 19.334 20.8835 19.9296 20.676C20.2842 20.5527 20.6998 21.0747 21.1496 21.6397C21.4441 22.0096 21.7534 22.398 22.0699 22.6359C22.674 23.0902 23.1326 22.9908 23.1326 22.9908L25.2697 22.9582C25.2697 22.9582 26.3872 22.8828 25.8574 21.92C25.8541 21.9139 25.8494 21.9047 25.8431 21.8921C25.767 21.7402 25.4503 21.1079 24.2688 19.9061L24.2319 19.8686C23.69 19.3181 23.4073 19.0308 23.3775 18.7139C23.3359 18.2705 23.7896 17.7692 24.722 16.4074C25.7048 14.9723 26.0977 14.0961 25.9748 13.7214C25.8582 13.3631 25.1351 13.4582 25.1351 13.4582L22.7296 13.4745C22.7296 13.4745 22.5511 13.448 22.4189 13.5345C22.2898 13.6194 22.206 13.8175 22.206 13.8175C22.206 13.8175 21.8257 14.9277 21.3178 15.8725C20.2465 17.8649 19.8184 17.9703 19.6431 17.8469C19.3013 17.6047 19.3176 16.9539 19.3318 16.3857C19.3345 16.2761 19.3372 16.1696 19.3372 16.0696C19.3372 15.625 19.3513 15.24 19.3636 14.9083C19.4044 13.7991 19.4234 13.2851 18.8167 13.1247C18.5554 13.0553 18.3629 13.0099 17.6938 13.0021C16.8353 12.9927 16.1091 13.0056 15.6975 13.2259C15.4236 13.3725 15.2123 13.7 15.3414 13.7189C15.5003 13.742 15.8602 13.8252 16.0512 14.1098C16.2977 14.4776 16.2891 15.3023 16.2891 15.3023C16.2891 15.3023 16.4307 17.5759 15.9581 17.858C15.6341 18.0518 15.1896 17.6565 14.2341 15.8484C13.745 14.9225 13.3756 13.8989 13.3756 13.8989C13.3756 13.8989 13.3044 13.7077 13.1768 13.6048C13.0227 13.4805 12.8075 13.442 12.8075 13.442L10.5216 13.4582C10.5216 13.4582 10.1781 13.4685 10.0521 13.6323C9.94016 13.7772 10.0435 14.0781 10.0435 14.0781C10.0435 14.0781 11.8332 18.6656 13.86 20.9778C15.7186 23.0971 17.8284 22.9582 17.8284 22.9582H18.7847Z" fill="currentColor"/>
</symbol><symbol viewBox="0 0 36 36" fill="none" id="icon-wh" xmlns="http://www.w3.org/2000/svg">
<rect x="0.5" y="0.5" width="35" height="35" rx="17.5" stroke="currentColor"/>
<path fill-rule="evenodd" clip-rule="evenodd" d="M18.0335 25.8625H18.0302C16.6969 25.8621 15.3868 25.5291 14.2232 24.8975L10 26L11.1302 21.8916C10.433 20.6892 10.0662 19.3253 10.0668 17.9279C10.0685 13.5565 13.6423 10 18.0334 10C20.1646 10.0009 22.1648 10.8266 23.6689 12.3252C25.173 13.8238 26.0008 15.8157 26 17.9342C25.9982 22.3046 22.4259 25.8607 18.0335 25.8625ZM14.6618 23.6049L14.42 23.4621L11.9139 24.1163L12.5828 21.6846L12.4254 21.4353C11.7626 20.3861 11.4125 19.1735 11.413 17.9283C11.4145 14.295 14.3849 11.3391 18.0373 11.3391C19.8059 11.3397 21.4684 12.026 22.7185 13.2716C23.9687 14.5172 24.6567 16.1728 24.656 17.9336C24.6546 21.5672 21.6842 24.5235 18.0347 24.5235H18.032C16.8438 24.523 15.6784 24.2053 14.6618 23.6049Z" fill="currentColor"/>
<path d="M22.0495 19.8195C22.0095 19.753 21.9157 19.7079 21.7769 19.6412C21.7432 19.625 21.7069 19.6075 21.668 19.5881C21.469 19.489 20.4903 19.0098 20.3078 18.9436C20.1254 18.8775 19.9927 18.8445 19.86 19.0428C19.7273 19.2411 19.3458 19.6873 19.2297 19.8195C19.1136 19.9517 18.9974 19.9683 18.7985 19.8691C18.7659 19.8529 18.7216 19.8338 18.6669 19.8102C18.3866 19.6892 17.8338 19.4505 17.1977 18.8859C16.6059 18.3605 16.2064 17.7118 16.0903 17.5135C15.9742 17.3152 16.0779 17.208 16.1776 17.1092C16.2372 17.0501 16.3057 16.9671 16.3742 16.8841C16.4085 16.8424 16.4429 16.8008 16.4762 16.7621C16.5608 16.6638 16.5974 16.5894 16.6472 16.4881C16.656 16.4702 16.6653 16.4515 16.6752 16.4317C16.7416 16.2994 16.7084 16.1838 16.6586 16.0846C16.6253 16.0182 16.4361 15.5597 16.2648 15.1447C16.1801 14.9395 16.0998 14.7449 16.0449 14.6136C15.9022 14.2726 15.7576 14.2734 15.6416 14.2741C15.6262 14.2742 15.6113 14.2743 15.597 14.2736C15.481 14.2678 15.3482 14.2666 15.2155 14.2666C15.0828 14.2666 14.8672 14.3161 14.6847 14.5145C14.673 14.5272 14.6599 14.5411 14.6457 14.5561C14.4384 14.7763 13.988 15.2546 13.988 16.1671C13.988 17.1372 14.6939 18.0744 14.7992 18.2143L14.8008 18.2164C14.8073 18.2251 14.819 18.2418 14.8357 18.2656C15.0741 18.6058 16.3352 20.4058 18.2013 21.2077C18.6762 21.4119 19.047 21.5338 19.3361 21.625C19.8129 21.7759 20.2469 21.7546 20.5898 21.7035C20.9723 21.6467 21.7675 21.2243 21.9335 20.7616C22.0993 20.2988 22.0993 19.9021 22.0495 19.8195Z" fill="currentColor"/>
</symbol><symbol viewBox="0 0 44 44" fill="none" id="icon-yt" xmlns="http://www.w3.org/2000/svg">
<rect x="0.5" y="0.5" width="43" height="43" rx="21.5" stroke="currentColor"/>
<path fill-rule="evenodd" clip-rule="evenodd" d="M29.8139 15.418C30.6744 15.648 31.352 16.3256 31.582 17.1861C32 18.7458 32 22.0001 32 22.0001C32 22.0001 32 25.2543 31.582 26.8139C31.352 27.6744 30.6744 28.3522 29.8139 28.5821C28.254 29 21.9999 29 21.9999 29C21.9999 29 15.7458 29 14.1859 28.5821C13.3256 28.3522 12.6478 27.6744 12.4178 26.8139C12 25.2543 12 22.0001 12 22.0001C12 22.0001 12 18.7458 12.4178 17.1861C12.6478 16.3256 13.3256 15.648 14.1859 15.418C15.7458 15 21.9999 15 21.9999 15C21.9999 15 28.254 15 29.8139 15.418ZM25.1959 22.0001L19.9999 25.0001V19L25.1959 22.0001Z" fill="currentColor"/>
</symbol></svg>